G04 #@! TF.GenerationSoftware,KiCad,Pcbnew,5.1.5-52549c5~84~ubuntu18.04.1*
G04 #@! TF.CreationDate,2020-01-22T13:17:15+02:00*
G04 #@! TF.ProjectId,bms_10s,626d735f-3130-4732-9e6b-696361645f70,rev?*
G04 #@! TF.SameCoordinates,Original*
G04 #@! TF.FileFunction,Legend,Top*
G04 #@! TF.FilePolarity,Positive*
%FSLAX46Y46*%
G04 Gerber Fmt 4.6, Leading zero omitted, Abs format (unit mm)*
G04 Created by KiCad (PCBNEW 5.1.5-52549c5~84~ubuntu18.04.1) date 2020-01-22 13:17:15*
%MOMM*%
%LPD*%
G04 APERTURE LIST*
%ADD10C,0.100000*%
%ADD11C,0.120000*%
%ADD12C,0.150000*%
G04 APERTURE END LIST*
D10*
X107400000Y-23302380D02*
X107400000Y-23540476D01*
X107161904Y-23445238D02*
X107400000Y-23540476D01*
X107638095Y-23445238D01*
X107257142Y-23730952D02*
X107400000Y-23540476D01*
X107542857Y-23730952D01*
X91010000Y-38472380D02*
X91010000Y-38710476D01*
X90771904Y-38615238D02*
X91010000Y-38710476D01*
X91248095Y-38615238D01*
X90867142Y-38900952D02*
X91010000Y-38710476D01*
X91152857Y-38900952D01*
X58825000Y-35627380D02*
X58825000Y-35865476D01*
X58586904Y-35770238D02*
X58825000Y-35865476D01*
X59063095Y-35770238D01*
X58682142Y-36055952D02*
X58825000Y-35865476D01*
X58967857Y-36055952D01*
X67976190Y-16026190D02*
X67690476Y-16026190D01*
X67833333Y-16026190D02*
X67833333Y-15526190D01*
X67785714Y-15597619D01*
X67738095Y-15645238D01*
X67690476Y-15669047D01*
X68285714Y-15526190D02*
X68333333Y-15526190D01*
X68380952Y-15550000D01*
X68404761Y-15573809D01*
X68428571Y-15621428D01*
X68452380Y-15716666D01*
X68452380Y-15835714D01*
X68428571Y-15930952D01*
X68404761Y-15978571D01*
X68380952Y-16002380D01*
X68333333Y-16026190D01*
X68285714Y-16026190D01*
X68238095Y-16002380D01*
X68214285Y-15978571D01*
X68190476Y-15930952D01*
X68166666Y-15835714D01*
X68166666Y-15716666D01*
X68190476Y-15621428D01*
X68214285Y-15573809D01*
X68238095Y-15550000D01*
X68285714Y-15526190D01*
X68761904Y-15526190D02*
X68809523Y-15526190D01*
X68857142Y-15550000D01*
X68880952Y-15573809D01*
X68904761Y-15621428D01*
X68928571Y-15716666D01*
X68928571Y-15835714D01*
X68904761Y-15930952D01*
X68880952Y-15978571D01*
X68857142Y-16002380D01*
X68809523Y-16026190D01*
X68761904Y-16026190D01*
X68714285Y-16002380D01*
X68690476Y-15978571D01*
X68666666Y-15930952D01*
X68642857Y-15835714D01*
X68642857Y-15716666D01*
X68666666Y-15621428D01*
X68690476Y-15573809D01*
X68714285Y-15550000D01*
X68761904Y-15526190D01*
X69166666Y-16002380D02*
X69166666Y-16026190D01*
X69142857Y-16073809D01*
X69119047Y-16097619D01*
X69476190Y-15526190D02*
X69523809Y-15526190D01*
X69571428Y-15550000D01*
X69595238Y-15573809D01*
X69619047Y-15621428D01*
X69642857Y-15716666D01*
X69642857Y-15835714D01*
X69619047Y-15930952D01*
X69595238Y-15978571D01*
X69571428Y-16002380D01*
X69523809Y-16026190D01*
X69476190Y-16026190D01*
X69428571Y-16002380D01*
X69404761Y-15978571D01*
X69380952Y-15930952D01*
X69357142Y-15835714D01*
X69357142Y-15716666D01*
X69380952Y-15621428D01*
X69404761Y-15573809D01*
X69428571Y-15550000D01*
X69476190Y-15526190D01*
X69952380Y-15526190D02*
X70000000Y-15526190D01*
X70047619Y-15550000D01*
X70071428Y-15573809D01*
X70095238Y-15621428D01*
X70119047Y-15716666D01*
X70119047Y-15835714D01*
X70095238Y-15930952D01*
X70071428Y-15978571D01*
X70047619Y-16002380D01*
X70000000Y-16026190D01*
X69952380Y-16026190D01*
X69904761Y-16002380D01*
X69880952Y-15978571D01*
X69857142Y-15930952D01*
X69833333Y-15835714D01*
X69833333Y-15716666D01*
X69857142Y-15621428D01*
X69880952Y-15573809D01*
X69904761Y-15550000D01*
X69952380Y-15526190D01*
X70428571Y-15526190D02*
X70476190Y-15526190D01*
X70523809Y-15550000D01*
X70547619Y-15573809D01*
X70571428Y-15621428D01*
X70595238Y-15716666D01*
X70595238Y-15835714D01*
X70571428Y-15930952D01*
X70547619Y-15978571D01*
X70523809Y-16002380D01*
X70476190Y-16026190D01*
X70428571Y-16026190D01*
X70380952Y-16002380D01*
X70357142Y-15978571D01*
X70333333Y-15930952D01*
X70309523Y-15835714D01*
X70309523Y-15716666D01*
X70333333Y-15621428D01*
X70357142Y-15573809D01*
X70380952Y-15550000D01*
X70428571Y-15526190D01*
X71190476Y-16026190D02*
X71190476Y-15692857D01*
X71190476Y-15740476D02*
X71214285Y-15716666D01*
X71261904Y-15692857D01*
X71333333Y-15692857D01*
X71380952Y-15716666D01*
X71404761Y-15764285D01*
X71404761Y-16026190D01*
X71404761Y-15764285D02*
X71428571Y-15716666D01*
X71476190Y-15692857D01*
X71547619Y-15692857D01*
X71595238Y-15716666D01*
X71619047Y-15764285D01*
X71619047Y-16026190D01*
X71857142Y-16026190D02*
X71857142Y-15692857D01*
X71857142Y-15740476D02*
X71880952Y-15716666D01*
X71928571Y-15692857D01*
X72000000Y-15692857D01*
X72047619Y-15716666D01*
X72071428Y-15764285D01*
X72071428Y-16026190D01*
X72071428Y-15764285D02*
X72095238Y-15716666D01*
X72142857Y-15692857D01*
X72214285Y-15692857D01*
X72261904Y-15716666D01*
X72285714Y-15764285D01*
X72285714Y-16026190D01*
X20000000Y-16500000D02*
X120000000Y-16500000D01*
X20000000Y-20000000D02*
X20000000Y-15913579D01*
X120000000Y-20000000D02*
X120000000Y-15913579D01*
X120000000Y-16500000D02*
X118873496Y-17086421D01*
X120000000Y-16500000D02*
X118873496Y-15913579D01*
X20000000Y-16500000D02*
X21126504Y-17086421D01*
X20000000Y-16500000D02*
X21126504Y-15913579D01*
D11*
X53475000Y-35325000D02*
X53475000Y-35217500D01*
X53475000Y-27275000D02*
X53475000Y-27382500D01*
X58125000Y-27275000D02*
X58125000Y-27382500D01*
X59200000Y-35325000D02*
X53475000Y-35325000D01*
X58125000Y-27275000D02*
X53475000Y-27275000D01*
X50110000Y-47063748D02*
X50110000Y-47586252D01*
X48690000Y-47063748D02*
X48690000Y-47586252D01*
X46090000Y-28563748D02*
X46090000Y-29086252D01*
X47510000Y-28563748D02*
X47510000Y-29086252D01*
X47510000Y-33663748D02*
X47510000Y-34186252D01*
X46090000Y-33663748D02*
X46090000Y-34186252D01*
X46090000Y-38863748D02*
X46090000Y-39386252D01*
X47510000Y-38863748D02*
X47510000Y-39386252D01*
X46090000Y-44463748D02*
X46090000Y-44986252D01*
X47510000Y-44463748D02*
X47510000Y-44986252D01*
X46090000Y-50386252D02*
X46090000Y-49863748D01*
X47510000Y-50386252D02*
X47510000Y-49863748D01*
X54590000Y-47838748D02*
X54590000Y-48361252D01*
X56010000Y-47838748D02*
X56010000Y-48361252D01*
X59236252Y-44390000D02*
X58713748Y-44390000D01*
X59236252Y-45810000D02*
X58713748Y-45810000D01*
X61610000Y-47838748D02*
X61610000Y-48361252D01*
X60190000Y-47838748D02*
X60190000Y-48361252D01*
X62713748Y-28090000D02*
X63236252Y-28090000D01*
X62713748Y-29510000D02*
X63236252Y-29510000D01*
X107664564Y-58010000D02*
X106460436Y-58010000D01*
X107664564Y-56190000D02*
X106460436Y-56190000D01*
X56010000Y-39038748D02*
X56010000Y-39561252D01*
X54590000Y-39038748D02*
X54590000Y-39561252D01*
X110040000Y-55010436D02*
X110040000Y-56214564D01*
X111860000Y-55010436D02*
X111860000Y-56214564D01*
X61910436Y-27260000D02*
X63114564Y-27260000D01*
X61910436Y-24540000D02*
X63114564Y-24540000D01*
X65340000Y-29685436D02*
X65340000Y-30889564D01*
X68060000Y-29685436D02*
X68060000Y-30889564D01*
X70385436Y-29640000D02*
X71589564Y-29640000D01*
X70385436Y-32360000D02*
X71589564Y-32360000D01*
X77360000Y-23710436D02*
X77360000Y-24914564D01*
X74640000Y-23710436D02*
X74640000Y-24914564D01*
X97513748Y-41790000D02*
X98036252Y-41790000D01*
X97513748Y-43210000D02*
X98036252Y-43210000D01*
X96710000Y-35863748D02*
X96710000Y-36386252D01*
X95290000Y-35863748D02*
X95290000Y-36386252D01*
X82360000Y-33911252D02*
X82360000Y-33388748D01*
X80940000Y-33911252D02*
X80940000Y-33388748D01*
X109463748Y-22240000D02*
X109986252Y-22240000D01*
X109463748Y-23660000D02*
X109986252Y-23660000D01*
X43450000Y-26750000D02*
X41750000Y-26750000D01*
X41750000Y-26750000D02*
X41750000Y-29900000D01*
X43450000Y-26750000D02*
X43450000Y-29900000D01*
X43450000Y-31850000D02*
X43450000Y-35000000D01*
X41750000Y-31850000D02*
X41750000Y-35000000D01*
X43450000Y-31850000D02*
X41750000Y-31850000D01*
X43450000Y-37100000D02*
X41750000Y-37100000D01*
X41750000Y-37100000D02*
X41750000Y-40250000D01*
X43450000Y-37100000D02*
X43450000Y-40250000D01*
X43450000Y-42700000D02*
X41750000Y-42700000D01*
X41750000Y-42700000D02*
X41750000Y-45850000D01*
X43450000Y-42700000D02*
X43450000Y-45850000D01*
X43450000Y-48100000D02*
X41750000Y-48100000D01*
X41750000Y-48100000D02*
X41750000Y-51250000D01*
X43450000Y-48100000D02*
X43450000Y-51250000D01*
X57700000Y-26750000D02*
X57700000Y-25050000D01*
X57700000Y-25050000D02*
X54550000Y-25050000D01*
X57700000Y-26750000D02*
X54550000Y-26750000D01*
X34850000Y-23200000D02*
X31700000Y-23200000D01*
X34850000Y-21500000D02*
X31700000Y-21500000D01*
X34850000Y-23200000D02*
X34850000Y-21500000D01*
X113760000Y-43089564D02*
X113760000Y-41885436D01*
X111940000Y-43089564D02*
X111940000Y-41885436D01*
X114340000Y-43089564D02*
X114340000Y-41885436D01*
X116160000Y-43089564D02*
X116160000Y-41885436D01*
X109540000Y-43064564D02*
X109540000Y-41860436D01*
X111360000Y-43064564D02*
X111360000Y-41860436D01*
X26860000Y-29140000D02*
X26860000Y-28860000D01*
X26860000Y-28860000D02*
X28460000Y-28860000D01*
X28460000Y-28860000D02*
X28460000Y-27940000D01*
X28460000Y-27940000D02*
X20640000Y-27940000D01*
X20640000Y-27940000D02*
X20640000Y-52060000D01*
X20640000Y-52060000D02*
X28460000Y-52060000D01*
X28460000Y-52060000D02*
X28460000Y-51140000D01*
X28460000Y-51140000D02*
X26860000Y-51140000D01*
X26860000Y-51140000D02*
X26860000Y-50860000D01*
X20640000Y-30500000D02*
X25000000Y-30500000D01*
X25000000Y-30500000D02*
X25000000Y-49500000D01*
X25000000Y-49500000D02*
X20640000Y-49500000D01*
X26860000Y-27940000D02*
X26860000Y-28860000D01*
X26860000Y-52060000D02*
X26860000Y-51140000D01*
X24500000Y-28700000D02*
X22900000Y-28700000D01*
X22900000Y-28700000D02*
X22900000Y-29700000D01*
X22900000Y-29700000D02*
X24500000Y-29700000D01*
X24500000Y-29700000D02*
X24500000Y-28700000D01*
X24500000Y-51300000D02*
X22900000Y-51300000D01*
X22900000Y-51300000D02*
X22900000Y-50300000D01*
X22900000Y-50300000D02*
X24500000Y-50300000D01*
X24500000Y-50300000D02*
X24500000Y-51300000D01*
X22900000Y-29700000D02*
X20640000Y-29700000D01*
X22900000Y-29200000D02*
X20640000Y-29200000D01*
X26860000Y-29140000D02*
X28075000Y-29140000D01*
X26860000Y-22040000D02*
X26860000Y-21760000D01*
X26860000Y-21760000D02*
X28460000Y-21760000D01*
X28460000Y-21760000D02*
X28460000Y-20840000D01*
X28460000Y-20840000D02*
X20640000Y-20840000D01*
X20640000Y-20840000D02*
X20640000Y-26960000D01*
X20640000Y-26960000D02*
X28460000Y-26960000D01*
X28460000Y-26960000D02*
X28460000Y-26040000D01*
X28460000Y-26040000D02*
X26860000Y-26040000D01*
X26860000Y-26040000D02*
X26860000Y-25760000D01*
X20640000Y-23400000D02*
X25000000Y-23400000D01*
X25000000Y-23400000D02*
X25000000Y-24400000D01*
X25000000Y-24400000D02*
X20640000Y-24400000D01*
X26860000Y-20840000D02*
X26860000Y-21760000D01*
X26860000Y-26960000D02*
X26860000Y-26040000D01*
X24500000Y-21600000D02*
X22900000Y-21600000D01*
X22900000Y-21600000D02*
X22900000Y-22600000D01*
X22900000Y-22600000D02*
X24500000Y-22600000D01*
X24500000Y-22600000D02*
X24500000Y-21600000D01*
X24500000Y-26200000D02*
X22900000Y-26200000D01*
X22900000Y-26200000D02*
X22900000Y-25200000D01*
X22900000Y-25200000D02*
X24500000Y-25200000D01*
X24500000Y-25200000D02*
X24500000Y-26200000D01*
X22900000Y-22600000D02*
X20640000Y-22600000D01*
X22900000Y-22100000D02*
X20640000Y-22100000D01*
X26860000Y-22040000D02*
X28075000Y-22040000D01*
X26860000Y-54190000D02*
X26860000Y-53910000D01*
X26860000Y-53910000D02*
X28460000Y-53910000D01*
X28460000Y-53910000D02*
X28460000Y-52990000D01*
X28460000Y-52990000D02*
X20640000Y-52990000D01*
X20640000Y-52990000D02*
X20640000Y-59110000D01*
X20640000Y-59110000D02*
X28460000Y-59110000D01*
X28460000Y-59110000D02*
X28460000Y-58190000D01*
X28460000Y-58190000D02*
X26860000Y-58190000D01*
X26860000Y-58190000D02*
X26860000Y-57910000D01*
X20640000Y-55550000D02*
X25000000Y-55550000D01*
X25000000Y-55550000D02*
X25000000Y-56550000D01*
X25000000Y-56550000D02*
X20640000Y-56550000D01*
X26860000Y-52990000D02*
X26860000Y-53910000D01*
X26860000Y-59110000D02*
X26860000Y-58190000D01*
X24500000Y-53750000D02*
X22900000Y-53750000D01*
X22900000Y-53750000D02*
X22900000Y-54750000D01*
X22900000Y-54750000D02*
X24500000Y-54750000D01*
X24500000Y-54750000D02*
X24500000Y-53750000D01*
X24500000Y-58350000D02*
X22900000Y-58350000D01*
X22900000Y-58350000D02*
X22900000Y-57350000D01*
X22900000Y-57350000D02*
X24500000Y-57350000D01*
X24500000Y-57350000D02*
X24500000Y-58350000D01*
X22900000Y-54750000D02*
X20640000Y-54750000D01*
X22900000Y-54250000D02*
X20640000Y-54250000D01*
X26860000Y-54190000D02*
X28075000Y-54190000D01*
X115770000Y-31830000D02*
X118430000Y-31830000D01*
X115770000Y-24150000D02*
X115770000Y-31830000D01*
X118430000Y-24150000D02*
X118430000Y-31830000D01*
X115770000Y-24150000D02*
X118430000Y-24150000D01*
X115770000Y-22880000D02*
X115770000Y-21550000D01*
X115770000Y-21550000D02*
X117100000Y-21550000D01*
X82410000Y-41170000D02*
X82410000Y-43830000D01*
X92630000Y-41170000D02*
X82410000Y-41170000D01*
X92630000Y-43830000D02*
X82410000Y-43830000D01*
X92630000Y-41170000D02*
X92630000Y-43830000D01*
X93900000Y-41170000D02*
X95230000Y-41170000D01*
X95230000Y-41170000D02*
X95230000Y-42500000D01*
X106980000Y-22240000D02*
X104320000Y-22240000D01*
X106980000Y-27380000D02*
X106980000Y-22240000D01*
X104320000Y-27380000D02*
X104320000Y-22240000D01*
X106980000Y-27380000D02*
X104320000Y-27380000D01*
X106980000Y-28650000D02*
X106980000Y-29980000D01*
X106980000Y-29980000D02*
X105650000Y-29980000D01*
X40460000Y-30280000D02*
X39000000Y-30280000D01*
X40460000Y-27120000D02*
X38300000Y-27120000D01*
X40460000Y-27120000D02*
X40460000Y-28050000D01*
X40460000Y-30280000D02*
X40460000Y-29350000D01*
X40460000Y-35280000D02*
X40460000Y-34350000D01*
X40460000Y-32120000D02*
X40460000Y-33050000D01*
X40460000Y-32120000D02*
X38300000Y-32120000D01*
X40460000Y-35280000D02*
X39000000Y-35280000D01*
X40460000Y-40580000D02*
X40460000Y-39650000D01*
X40460000Y-37420000D02*
X40460000Y-38350000D01*
X40460000Y-37420000D02*
X38300000Y-37420000D01*
X40460000Y-40580000D02*
X39000000Y-40580000D01*
X40460000Y-46080000D02*
X39000000Y-46080000D01*
X40460000Y-42920000D02*
X38300000Y-42920000D01*
X40460000Y-42920000D02*
X40460000Y-43850000D01*
X40460000Y-46080000D02*
X40460000Y-45150000D01*
X40460000Y-51580000D02*
X40460000Y-50650000D01*
X40460000Y-48420000D02*
X40460000Y-49350000D01*
X40460000Y-48420000D02*
X38300000Y-48420000D01*
X40460000Y-51580000D02*
X39000000Y-51580000D01*
X36286252Y-25890000D02*
X35763748Y-25890000D01*
X36286252Y-27310000D02*
X35763748Y-27310000D01*
X43990000Y-29086252D02*
X43990000Y-28563748D01*
X45410000Y-29086252D02*
X45410000Y-28563748D01*
X36261252Y-30990000D02*
X35738748Y-30990000D01*
X36261252Y-32410000D02*
X35738748Y-32410000D01*
X43990000Y-34186252D02*
X43990000Y-33663748D01*
X45410000Y-34186252D02*
X45410000Y-33663748D01*
X36261252Y-36290000D02*
X35738748Y-36290000D01*
X36261252Y-37710000D02*
X35738748Y-37710000D01*
X43990000Y-39386252D02*
X43990000Y-38863748D01*
X45410000Y-39386252D02*
X45410000Y-38863748D01*
X36261252Y-41790000D02*
X35738748Y-41790000D01*
X36261252Y-43210000D02*
X35738748Y-43210000D01*
X45410000Y-44986252D02*
X45410000Y-44463748D01*
X43990000Y-44986252D02*
X43990000Y-44463748D01*
X36361252Y-48710000D02*
X35838748Y-48710000D01*
X36361252Y-47290000D02*
X35838748Y-47290000D01*
X45410000Y-50386252D02*
X45410000Y-49863748D01*
X43990000Y-50386252D02*
X43990000Y-49863748D01*
X43886252Y-52690000D02*
X43363748Y-52690000D01*
X43886252Y-54110000D02*
X43363748Y-54110000D01*
X36361252Y-54510000D02*
X35838748Y-54510000D01*
X36361252Y-53090000D02*
X35838748Y-53090000D01*
X58110000Y-47838748D02*
X58110000Y-48361252D01*
X56690000Y-47838748D02*
X56690000Y-48361252D01*
X64700000Y-58700000D02*
X55700000Y-58700000D01*
X64700000Y-51700000D02*
X55700000Y-51700000D01*
X62290000Y-47838748D02*
X62290000Y-48361252D01*
X63710000Y-47838748D02*
X63710000Y-48361252D01*
X52490000Y-39038748D02*
X52490000Y-39561252D01*
X53910000Y-39038748D02*
X53910000Y-39561252D01*
X55763748Y-23190000D02*
X56286252Y-23190000D01*
X55763748Y-24610000D02*
X56286252Y-24610000D01*
X62110000Y-34086252D02*
X62110000Y-33563748D01*
X60690000Y-34086252D02*
X60690000Y-33563748D01*
X32463748Y-25160000D02*
X32986252Y-25160000D01*
X32463748Y-23740000D02*
X32986252Y-23740000D01*
X67410000Y-25136252D02*
X67410000Y-24613748D01*
X65990000Y-25136252D02*
X65990000Y-24613748D01*
X62790000Y-35186252D02*
X62790000Y-34663748D01*
X64210000Y-35186252D02*
X64210000Y-34663748D01*
X43376252Y-23060000D02*
X42853748Y-23060000D01*
X43376252Y-21640000D02*
X42853748Y-21640000D01*
X80061252Y-43210000D02*
X79538748Y-43210000D01*
X80061252Y-41790000D02*
X79538748Y-41790000D01*
X92990000Y-35863748D02*
X92990000Y-36386252D01*
X94410000Y-35863748D02*
X94410000Y-36386252D01*
X113560000Y-37763748D02*
X113560000Y-38286252D01*
X112140000Y-37763748D02*
X112140000Y-38286252D01*
X114540000Y-37763748D02*
X114540000Y-38286252D01*
X115960000Y-37763748D02*
X115960000Y-38286252D01*
X111160000Y-37763748D02*
X111160000Y-38286252D01*
X109740000Y-37763748D02*
X109740000Y-38286252D01*
X73975000Y-22105000D02*
X73975000Y-28450000D01*
X68835000Y-22560000D02*
X68835000Y-28450000D01*
D12*
X90175000Y-31300000D02*
X85725000Y-31300000D01*
X91700000Y-38200000D02*
X85725000Y-38200000D01*
D11*
X111275000Y-29305000D02*
X113225000Y-29305000D01*
X111275000Y-29305000D02*
X109325000Y-29305000D01*
X111275000Y-24185000D02*
X113225000Y-24185000D01*
X111275000Y-24185000D02*
X107825000Y-24185000D01*
X35763748Y-27990000D02*
X36286252Y-27990000D01*
X35763748Y-29410000D02*
X36286252Y-29410000D01*
X35738748Y-32990000D02*
X36261252Y-32990000D01*
X35738748Y-34410000D02*
X36261252Y-34410000D01*
X35738748Y-38290000D02*
X36261252Y-38290000D01*
X35738748Y-39710000D02*
X36261252Y-39710000D01*
X35738748Y-45210000D02*
X36261252Y-45210000D01*
X35738748Y-43790000D02*
X36261252Y-43790000D01*
X35838748Y-50710000D02*
X36361252Y-50710000D01*
X35838748Y-49290000D02*
X36361252Y-49290000D01*
D12*
X52338095Y-35702380D02*
X52338095Y-36511904D01*
X52385714Y-36607142D01*
X52433333Y-36654761D01*
X52528571Y-36702380D01*
X52719047Y-36702380D01*
X52814285Y-36654761D01*
X52861904Y-36607142D01*
X52909523Y-36511904D01*
X52909523Y-35702380D01*
X53909523Y-36702380D02*
X53338095Y-36702380D01*
X53623809Y-36702380D02*
X53623809Y-35702380D01*
X53528571Y-35845238D01*
X53433333Y-35940476D01*
X53338095Y-35988095D01*
X51407142Y-47491666D02*
X51454761Y-47539285D01*
X51502380Y-47682142D01*
X51502380Y-47777380D01*
X51454761Y-47920238D01*
X51359523Y-48015476D01*
X51264285Y-48063095D01*
X51073809Y-48110714D01*
X50930952Y-48110714D01*
X50740476Y-48063095D01*
X50645238Y-48015476D01*
X50550000Y-47920238D01*
X50502380Y-47777380D01*
X50502380Y-47682142D01*
X50550000Y-47539285D01*
X50597619Y-47491666D01*
X50502380Y-46586904D02*
X50502380Y-47063095D01*
X50978571Y-47110714D01*
X50930952Y-47063095D01*
X50883333Y-46967857D01*
X50883333Y-46729761D01*
X50930952Y-46634523D01*
X50978571Y-46586904D01*
X51073809Y-46539285D01*
X51311904Y-46539285D01*
X51407142Y-46586904D01*
X51454761Y-46634523D01*
X51502380Y-46729761D01*
X51502380Y-46967857D01*
X51454761Y-47063095D01*
X51407142Y-47110714D01*
X48807142Y-28991666D02*
X48854761Y-29039285D01*
X48902380Y-29182142D01*
X48902380Y-29277380D01*
X48854761Y-29420238D01*
X48759523Y-29515476D01*
X48664285Y-29563095D01*
X48473809Y-29610714D01*
X48330952Y-29610714D01*
X48140476Y-29563095D01*
X48045238Y-29515476D01*
X47950000Y-29420238D01*
X47902380Y-29277380D01*
X47902380Y-29182142D01*
X47950000Y-29039285D01*
X47997619Y-28991666D01*
X48902380Y-28039285D02*
X48902380Y-28610714D01*
X48902380Y-28325000D02*
X47902380Y-28325000D01*
X48045238Y-28420238D01*
X48140476Y-28515476D01*
X48188095Y-28610714D01*
X48807142Y-34091666D02*
X48854761Y-34139285D01*
X48902380Y-34282142D01*
X48902380Y-34377380D01*
X48854761Y-34520238D01*
X48759523Y-34615476D01*
X48664285Y-34663095D01*
X48473809Y-34710714D01*
X48330952Y-34710714D01*
X48140476Y-34663095D01*
X48045238Y-34615476D01*
X47950000Y-34520238D01*
X47902380Y-34377380D01*
X47902380Y-34282142D01*
X47950000Y-34139285D01*
X47997619Y-34091666D01*
X47997619Y-33710714D02*
X47950000Y-33663095D01*
X47902380Y-33567857D01*
X47902380Y-33329761D01*
X47950000Y-33234523D01*
X47997619Y-33186904D01*
X48092857Y-33139285D01*
X48188095Y-33139285D01*
X48330952Y-33186904D01*
X48902380Y-33758333D01*
X48902380Y-33139285D01*
X48807142Y-39291666D02*
X48854761Y-39339285D01*
X48902380Y-39482142D01*
X48902380Y-39577380D01*
X48854761Y-39720238D01*
X48759523Y-39815476D01*
X48664285Y-39863095D01*
X48473809Y-39910714D01*
X48330952Y-39910714D01*
X48140476Y-39863095D01*
X48045238Y-39815476D01*
X47950000Y-39720238D01*
X47902380Y-39577380D01*
X47902380Y-39482142D01*
X47950000Y-39339285D01*
X47997619Y-39291666D01*
X47902380Y-38958333D02*
X47902380Y-38339285D01*
X48283333Y-38672619D01*
X48283333Y-38529761D01*
X48330952Y-38434523D01*
X48378571Y-38386904D01*
X48473809Y-38339285D01*
X48711904Y-38339285D01*
X48807142Y-38386904D01*
X48854761Y-38434523D01*
X48902380Y-38529761D01*
X48902380Y-38815476D01*
X48854761Y-38910714D01*
X48807142Y-38958333D01*
X48807142Y-44891666D02*
X48854761Y-44939285D01*
X48902380Y-45082142D01*
X48902380Y-45177380D01*
X48854761Y-45320238D01*
X48759523Y-45415476D01*
X48664285Y-45463095D01*
X48473809Y-45510714D01*
X48330952Y-45510714D01*
X48140476Y-45463095D01*
X48045238Y-45415476D01*
X47950000Y-45320238D01*
X47902380Y-45177380D01*
X47902380Y-45082142D01*
X47950000Y-44939285D01*
X47997619Y-44891666D01*
X48235714Y-44034523D02*
X48902380Y-44034523D01*
X47854761Y-44272619D02*
X48569047Y-44510714D01*
X48569047Y-43891666D01*
X48807142Y-51267857D02*
X48854761Y-51315476D01*
X48902380Y-51458333D01*
X48902380Y-51553571D01*
X48854761Y-51696428D01*
X48759523Y-51791666D01*
X48664285Y-51839285D01*
X48473809Y-51886904D01*
X48330952Y-51886904D01*
X48140476Y-51839285D01*
X48045238Y-51791666D01*
X47950000Y-51696428D01*
X47902380Y-51553571D01*
X47902380Y-51458333D01*
X47950000Y-51315476D01*
X47997619Y-51267857D01*
X48902380Y-50315476D02*
X48902380Y-50886904D01*
X48902380Y-50601190D02*
X47902380Y-50601190D01*
X48045238Y-50696428D01*
X48140476Y-50791666D01*
X48188095Y-50886904D01*
X47997619Y-49934523D02*
X47950000Y-49886904D01*
X47902380Y-49791666D01*
X47902380Y-49553571D01*
X47950000Y-49458333D01*
X47997619Y-49410714D01*
X48092857Y-49363095D01*
X48188095Y-49363095D01*
X48330952Y-49410714D01*
X48902380Y-49982142D01*
X48902380Y-49363095D01*
X54107142Y-47892857D02*
X54154761Y-47940476D01*
X54202380Y-48083333D01*
X54202380Y-48178571D01*
X54154761Y-48321428D01*
X54059523Y-48416666D01*
X53964285Y-48464285D01*
X53773809Y-48511904D01*
X53630952Y-48511904D01*
X53440476Y-48464285D01*
X53345238Y-48416666D01*
X53250000Y-48321428D01*
X53202380Y-48178571D01*
X53202380Y-48083333D01*
X53250000Y-47940476D01*
X53297619Y-47892857D01*
X54202380Y-46940476D02*
X54202380Y-47511904D01*
X54202380Y-47226190D02*
X53202380Y-47226190D01*
X53345238Y-47321428D01*
X53440476Y-47416666D01*
X53488095Y-47511904D01*
X53202380Y-46607142D02*
X53202380Y-45988095D01*
X53583333Y-46321428D01*
X53583333Y-46178571D01*
X53630952Y-46083333D01*
X53678571Y-46035714D01*
X53773809Y-45988095D01*
X54011904Y-45988095D01*
X54107142Y-46035714D01*
X54154761Y-46083333D01*
X54202380Y-46178571D01*
X54202380Y-46464285D01*
X54154761Y-46559523D01*
X54107142Y-46607142D01*
X58332142Y-43857142D02*
X58284523Y-43904761D01*
X58141666Y-43952380D01*
X58046428Y-43952380D01*
X57903571Y-43904761D01*
X57808333Y-43809523D01*
X57760714Y-43714285D01*
X57713095Y-43523809D01*
X57713095Y-43380952D01*
X57760714Y-43190476D01*
X57808333Y-43095238D01*
X57903571Y-43000000D01*
X58046428Y-42952380D01*
X58141666Y-42952380D01*
X58284523Y-43000000D01*
X58332142Y-43047619D01*
X59284523Y-43952380D02*
X58713095Y-43952380D01*
X58998809Y-43952380D02*
X58998809Y-42952380D01*
X58903571Y-43095238D01*
X58808333Y-43190476D01*
X58713095Y-43238095D01*
X60141666Y-43285714D02*
X60141666Y-43952380D01*
X59903571Y-42904761D02*
X59665476Y-43619047D01*
X60284523Y-43619047D01*
X61457142Y-45807142D02*
X61409523Y-45854761D01*
X61266666Y-45902380D01*
X61171428Y-45902380D01*
X61028571Y-45854761D01*
X60933333Y-45759523D01*
X60885714Y-45664285D01*
X60838095Y-45473809D01*
X60838095Y-45330952D01*
X60885714Y-45140476D01*
X60933333Y-45045238D01*
X61028571Y-44950000D01*
X61171428Y-44902380D01*
X61266666Y-44902380D01*
X61409523Y-44950000D01*
X61457142Y-44997619D01*
X62409523Y-45902380D02*
X61838095Y-45902380D01*
X62123809Y-45902380D02*
X62123809Y-44902380D01*
X62028571Y-45045238D01*
X61933333Y-45140476D01*
X61838095Y-45188095D01*
X63314285Y-44902380D02*
X62838095Y-44902380D01*
X62790476Y-45378571D01*
X62838095Y-45330952D01*
X62933333Y-45283333D01*
X63171428Y-45283333D01*
X63266666Y-45330952D01*
X63314285Y-45378571D01*
X63361904Y-45473809D01*
X63361904Y-45711904D01*
X63314285Y-45807142D01*
X63266666Y-45854761D01*
X63171428Y-45902380D01*
X62933333Y-45902380D01*
X62838095Y-45854761D01*
X62790476Y-45807142D01*
X62332142Y-30807142D02*
X62284523Y-30854761D01*
X62141666Y-30902380D01*
X62046428Y-30902380D01*
X61903571Y-30854761D01*
X61808333Y-30759523D01*
X61760714Y-30664285D01*
X61713095Y-30473809D01*
X61713095Y-30330952D01*
X61760714Y-30140476D01*
X61808333Y-30045238D01*
X61903571Y-29950000D01*
X62046428Y-29902380D01*
X62141666Y-29902380D01*
X62284523Y-29950000D01*
X62332142Y-29997619D01*
X63284523Y-30902380D02*
X62713095Y-30902380D01*
X62998809Y-30902380D02*
X62998809Y-29902380D01*
X62903571Y-30045238D01*
X62808333Y-30140476D01*
X62713095Y-30188095D01*
X63617857Y-29902380D02*
X64284523Y-29902380D01*
X63855952Y-30902380D01*
X106419642Y-55607142D02*
X106372023Y-55654761D01*
X106229166Y-55702380D01*
X106133928Y-55702380D01*
X105991071Y-55654761D01*
X105895833Y-55559523D01*
X105848214Y-55464285D01*
X105800595Y-55273809D01*
X105800595Y-55130952D01*
X105848214Y-54940476D01*
X105895833Y-54845238D01*
X105991071Y-54750000D01*
X106133928Y-54702380D01*
X106229166Y-54702380D01*
X106372023Y-54750000D01*
X106419642Y-54797619D01*
X107372023Y-55702380D02*
X106800595Y-55702380D01*
X107086309Y-55702380D02*
X107086309Y-54702380D01*
X106991071Y-54845238D01*
X106895833Y-54940476D01*
X106800595Y-54988095D01*
X107943452Y-55130952D02*
X107848214Y-55083333D01*
X107800595Y-55035714D01*
X107752976Y-54940476D01*
X107752976Y-54892857D01*
X107800595Y-54797619D01*
X107848214Y-54750000D01*
X107943452Y-54702380D01*
X108133928Y-54702380D01*
X108229166Y-54750000D01*
X108276785Y-54797619D01*
X108324404Y-54892857D01*
X108324404Y-54940476D01*
X108276785Y-55035714D01*
X108229166Y-55083333D01*
X108133928Y-55130952D01*
X107943452Y-55130952D01*
X107848214Y-55178571D01*
X107800595Y-55226190D01*
X107752976Y-55321428D01*
X107752976Y-55511904D01*
X107800595Y-55607142D01*
X107848214Y-55654761D01*
X107943452Y-55702380D01*
X108133928Y-55702380D01*
X108229166Y-55654761D01*
X108276785Y-55607142D01*
X108324404Y-55511904D01*
X108324404Y-55321428D01*
X108276785Y-55226190D01*
X108229166Y-55178571D01*
X108133928Y-55130952D01*
X57057142Y-38607142D02*
X57009523Y-38654761D01*
X56866666Y-38702380D01*
X56771428Y-38702380D01*
X56628571Y-38654761D01*
X56533333Y-38559523D01*
X56485714Y-38464285D01*
X56438095Y-38273809D01*
X56438095Y-38130952D01*
X56485714Y-37940476D01*
X56533333Y-37845238D01*
X56628571Y-37750000D01*
X56771428Y-37702380D01*
X56866666Y-37702380D01*
X57009523Y-37750000D01*
X57057142Y-37797619D01*
X58009523Y-38702380D02*
X57438095Y-38702380D01*
X57723809Y-38702380D02*
X57723809Y-37702380D01*
X57628571Y-37845238D01*
X57533333Y-37940476D01*
X57438095Y-37988095D01*
X58485714Y-38702380D02*
X58676190Y-38702380D01*
X58771428Y-38654761D01*
X58819047Y-38607142D01*
X58914285Y-38464285D01*
X58961904Y-38273809D01*
X58961904Y-37892857D01*
X58914285Y-37797619D01*
X58866666Y-37750000D01*
X58771428Y-37702380D01*
X58580952Y-37702380D01*
X58485714Y-37750000D01*
X58438095Y-37797619D01*
X58390476Y-37892857D01*
X58390476Y-38130952D01*
X58438095Y-38226190D01*
X58485714Y-38273809D01*
X58580952Y-38321428D01*
X58771428Y-38321428D01*
X58866666Y-38273809D01*
X58914285Y-38226190D01*
X58961904Y-38130952D01*
X113127142Y-56255357D02*
X113174761Y-56302976D01*
X113222380Y-56445833D01*
X113222380Y-56541071D01*
X113174761Y-56683928D01*
X113079523Y-56779166D01*
X112984285Y-56826785D01*
X112793809Y-56874404D01*
X112650952Y-56874404D01*
X112460476Y-56826785D01*
X112365238Y-56779166D01*
X112270000Y-56683928D01*
X112222380Y-56541071D01*
X112222380Y-56445833D01*
X112270000Y-56302976D01*
X112317619Y-56255357D01*
X112317619Y-55874404D02*
X112270000Y-55826785D01*
X112222380Y-55731547D01*
X112222380Y-55493452D01*
X112270000Y-55398214D01*
X112317619Y-55350595D01*
X112412857Y-55302976D01*
X112508095Y-55302976D01*
X112650952Y-55350595D01*
X113222380Y-55922023D01*
X113222380Y-55302976D01*
X112317619Y-54922023D02*
X112270000Y-54874404D01*
X112222380Y-54779166D01*
X112222380Y-54541071D01*
X112270000Y-54445833D01*
X112317619Y-54398214D01*
X112412857Y-54350595D01*
X112508095Y-54350595D01*
X112650952Y-54398214D01*
X113222380Y-54969642D01*
X113222380Y-54350595D01*
X61869642Y-23977142D02*
X61822023Y-24024761D01*
X61679166Y-24072380D01*
X61583928Y-24072380D01*
X61441071Y-24024761D01*
X61345833Y-23929523D01*
X61298214Y-23834285D01*
X61250595Y-23643809D01*
X61250595Y-23500952D01*
X61298214Y-23310476D01*
X61345833Y-23215238D01*
X61441071Y-23120000D01*
X61583928Y-23072380D01*
X61679166Y-23072380D01*
X61822023Y-23120000D01*
X61869642Y-23167619D01*
X62250595Y-23167619D02*
X62298214Y-23120000D01*
X62393452Y-23072380D01*
X62631547Y-23072380D01*
X62726785Y-23120000D01*
X62774404Y-23167619D01*
X62822023Y-23262857D01*
X62822023Y-23358095D01*
X62774404Y-23500952D01*
X62202976Y-24072380D01*
X62822023Y-24072380D01*
X63679166Y-23405714D02*
X63679166Y-24072380D01*
X63441071Y-23024761D02*
X63202976Y-23739047D01*
X63822023Y-23739047D01*
X66007142Y-34382142D02*
X65959523Y-34429761D01*
X65816666Y-34477380D01*
X65721428Y-34477380D01*
X65578571Y-34429761D01*
X65483333Y-34334523D01*
X65435714Y-34239285D01*
X65388095Y-34048809D01*
X65388095Y-33905952D01*
X65435714Y-33715476D01*
X65483333Y-33620238D01*
X65578571Y-33525000D01*
X65721428Y-33477380D01*
X65816666Y-33477380D01*
X65959523Y-33525000D01*
X66007142Y-33572619D01*
X66388095Y-33572619D02*
X66435714Y-33525000D01*
X66530952Y-33477380D01*
X66769047Y-33477380D01*
X66864285Y-33525000D01*
X66911904Y-33572619D01*
X66959523Y-33667857D01*
X66959523Y-33763095D01*
X66911904Y-33905952D01*
X66340476Y-34477380D01*
X66959523Y-34477380D01*
X67864285Y-33477380D02*
X67388095Y-33477380D01*
X67340476Y-33953571D01*
X67388095Y-33905952D01*
X67483333Y-33858333D01*
X67721428Y-33858333D01*
X67816666Y-33905952D01*
X67864285Y-33953571D01*
X67911904Y-34048809D01*
X67911904Y-34286904D01*
X67864285Y-34382142D01*
X67816666Y-34429761D01*
X67721428Y-34477380D01*
X67483333Y-34477380D01*
X67388095Y-34429761D01*
X67340476Y-34382142D01*
X70332142Y-33807142D02*
X70284523Y-33854761D01*
X70141666Y-33902380D01*
X70046428Y-33902380D01*
X69903571Y-33854761D01*
X69808333Y-33759523D01*
X69760714Y-33664285D01*
X69713095Y-33473809D01*
X69713095Y-33330952D01*
X69760714Y-33140476D01*
X69808333Y-33045238D01*
X69903571Y-32950000D01*
X70046428Y-32902380D01*
X70141666Y-32902380D01*
X70284523Y-32950000D01*
X70332142Y-32997619D01*
X70713095Y-32997619D02*
X70760714Y-32950000D01*
X70855952Y-32902380D01*
X71094047Y-32902380D01*
X71189285Y-32950000D01*
X71236904Y-32997619D01*
X71284523Y-33092857D01*
X71284523Y-33188095D01*
X71236904Y-33330952D01*
X70665476Y-33902380D01*
X71284523Y-33902380D01*
X72141666Y-32902380D02*
X71951190Y-32902380D01*
X71855952Y-32950000D01*
X71808333Y-32997619D01*
X71713095Y-33140476D01*
X71665476Y-33330952D01*
X71665476Y-33711904D01*
X71713095Y-33807142D01*
X71760714Y-33854761D01*
X71855952Y-33902380D01*
X72046428Y-33902380D01*
X72141666Y-33854761D01*
X72189285Y-33807142D01*
X72236904Y-33711904D01*
X72236904Y-33473809D01*
X72189285Y-33378571D01*
X72141666Y-33330952D01*
X72046428Y-33283333D01*
X71855952Y-33283333D01*
X71760714Y-33330952D01*
X71713095Y-33378571D01*
X71665476Y-33473809D01*
X78637142Y-24955357D02*
X78684761Y-25002976D01*
X78732380Y-25145833D01*
X78732380Y-25241071D01*
X78684761Y-25383928D01*
X78589523Y-25479166D01*
X78494285Y-25526785D01*
X78303809Y-25574404D01*
X78160952Y-25574404D01*
X77970476Y-25526785D01*
X77875238Y-25479166D01*
X77780000Y-25383928D01*
X77732380Y-25241071D01*
X77732380Y-25145833D01*
X77780000Y-25002976D01*
X77827619Y-24955357D01*
X77827619Y-24574404D02*
X77780000Y-24526785D01*
X77732380Y-24431547D01*
X77732380Y-24193452D01*
X77780000Y-24098214D01*
X77827619Y-24050595D01*
X77922857Y-24002976D01*
X78018095Y-24002976D01*
X78160952Y-24050595D01*
X78732380Y-24622023D01*
X78732380Y-24002976D01*
X77732380Y-23669642D02*
X77732380Y-23002976D01*
X78732380Y-23431547D01*
X97132142Y-41207142D02*
X97084523Y-41254761D01*
X96941666Y-41302380D01*
X96846428Y-41302380D01*
X96703571Y-41254761D01*
X96608333Y-41159523D01*
X96560714Y-41064285D01*
X96513095Y-40873809D01*
X96513095Y-40730952D01*
X96560714Y-40540476D01*
X96608333Y-40445238D01*
X96703571Y-40350000D01*
X96846428Y-40302380D01*
X96941666Y-40302380D01*
X97084523Y-40350000D01*
X97132142Y-40397619D01*
X97513095Y-40397619D02*
X97560714Y-40350000D01*
X97655952Y-40302380D01*
X97894047Y-40302380D01*
X97989285Y-40350000D01*
X98036904Y-40397619D01*
X98084523Y-40492857D01*
X98084523Y-40588095D01*
X98036904Y-40730952D01*
X97465476Y-41302380D01*
X98084523Y-41302380D01*
X98655952Y-40730952D02*
X98560714Y-40683333D01*
X98513095Y-40635714D01*
X98465476Y-40540476D01*
X98465476Y-40492857D01*
X98513095Y-40397619D01*
X98560714Y-40350000D01*
X98655952Y-40302380D01*
X98846428Y-40302380D01*
X98941666Y-40350000D01*
X98989285Y-40397619D01*
X99036904Y-40492857D01*
X99036904Y-40540476D01*
X98989285Y-40635714D01*
X98941666Y-40683333D01*
X98846428Y-40730952D01*
X98655952Y-40730952D01*
X98560714Y-40778571D01*
X98513095Y-40826190D01*
X98465476Y-40921428D01*
X98465476Y-41111904D01*
X98513095Y-41207142D01*
X98560714Y-41254761D01*
X98655952Y-41302380D01*
X98846428Y-41302380D01*
X98941666Y-41254761D01*
X98989285Y-41207142D01*
X99036904Y-41111904D01*
X99036904Y-40921428D01*
X98989285Y-40826190D01*
X98941666Y-40778571D01*
X98846428Y-40730952D01*
X98007142Y-36767857D02*
X98054761Y-36815476D01*
X98102380Y-36958333D01*
X98102380Y-37053571D01*
X98054761Y-37196428D01*
X97959523Y-37291666D01*
X97864285Y-37339285D01*
X97673809Y-37386904D01*
X97530952Y-37386904D01*
X97340476Y-37339285D01*
X97245238Y-37291666D01*
X97150000Y-37196428D01*
X97102380Y-37053571D01*
X97102380Y-36958333D01*
X97150000Y-36815476D01*
X97197619Y-36767857D01*
X97197619Y-36386904D02*
X97150000Y-36339285D01*
X97102380Y-36244047D01*
X97102380Y-36005952D01*
X97150000Y-35910714D01*
X97197619Y-35863095D01*
X97292857Y-35815476D01*
X97388095Y-35815476D01*
X97530952Y-35863095D01*
X98102380Y-36434523D01*
X98102380Y-35815476D01*
X98102380Y-35339285D02*
X98102380Y-35148809D01*
X98054761Y-35053571D01*
X98007142Y-35005952D01*
X97864285Y-34910714D01*
X97673809Y-34863095D01*
X97292857Y-34863095D01*
X97197619Y-34910714D01*
X97150000Y-34958333D01*
X97102380Y-35053571D01*
X97102380Y-35244047D01*
X97150000Y-35339285D01*
X97197619Y-35386904D01*
X97292857Y-35434523D01*
X97530952Y-35434523D01*
X97626190Y-35386904D01*
X97673809Y-35339285D01*
X97721428Y-35244047D01*
X97721428Y-35053571D01*
X97673809Y-34958333D01*
X97626190Y-34910714D01*
X97530952Y-34863095D01*
X81007142Y-31557142D02*
X80959523Y-31604761D01*
X80816666Y-31652380D01*
X80721428Y-31652380D01*
X80578571Y-31604761D01*
X80483333Y-31509523D01*
X80435714Y-31414285D01*
X80388095Y-31223809D01*
X80388095Y-31080952D01*
X80435714Y-30890476D01*
X80483333Y-30795238D01*
X80578571Y-30700000D01*
X80721428Y-30652380D01*
X80816666Y-30652380D01*
X80959523Y-30700000D01*
X81007142Y-30747619D01*
X81340476Y-30652380D02*
X81959523Y-30652380D01*
X81626190Y-31033333D01*
X81769047Y-31033333D01*
X81864285Y-31080952D01*
X81911904Y-31128571D01*
X81959523Y-31223809D01*
X81959523Y-31461904D01*
X81911904Y-31557142D01*
X81864285Y-31604761D01*
X81769047Y-31652380D01*
X81483333Y-31652380D01*
X81388095Y-31604761D01*
X81340476Y-31557142D01*
X82578571Y-30652380D02*
X82673809Y-30652380D01*
X82769047Y-30700000D01*
X82816666Y-30747619D01*
X82864285Y-30842857D01*
X82911904Y-31033333D01*
X82911904Y-31271428D01*
X82864285Y-31461904D01*
X82816666Y-31557142D01*
X82769047Y-31604761D01*
X82673809Y-31652380D01*
X82578571Y-31652380D01*
X82483333Y-31604761D01*
X82435714Y-31557142D01*
X82388095Y-31461904D01*
X82340476Y-31271428D01*
X82340476Y-31033333D01*
X82388095Y-30842857D01*
X82435714Y-30747619D01*
X82483333Y-30700000D01*
X82578571Y-30652380D01*
X109082142Y-21657142D02*
X109034523Y-21704761D01*
X108891666Y-21752380D01*
X108796428Y-21752380D01*
X108653571Y-21704761D01*
X108558333Y-21609523D01*
X108510714Y-21514285D01*
X108463095Y-21323809D01*
X108463095Y-21180952D01*
X108510714Y-20990476D01*
X108558333Y-20895238D01*
X108653571Y-20800000D01*
X108796428Y-20752380D01*
X108891666Y-20752380D01*
X109034523Y-20800000D01*
X109082142Y-20847619D01*
X109415476Y-20752380D02*
X110034523Y-20752380D01*
X109701190Y-21133333D01*
X109844047Y-21133333D01*
X109939285Y-21180952D01*
X109986904Y-21228571D01*
X110034523Y-21323809D01*
X110034523Y-21561904D01*
X109986904Y-21657142D01*
X109939285Y-21704761D01*
X109844047Y-21752380D01*
X109558333Y-21752380D01*
X109463095Y-21704761D01*
X109415476Y-21657142D01*
X110415476Y-20847619D02*
X110463095Y-20800000D01*
X110558333Y-20752380D01*
X110796428Y-20752380D01*
X110891666Y-20800000D01*
X110939285Y-20847619D01*
X110986904Y-20942857D01*
X110986904Y-21038095D01*
X110939285Y-21180952D01*
X110367857Y-21752380D01*
X110986904Y-21752380D01*
X41561904Y-26352380D02*
X41561904Y-25352380D01*
X41800000Y-25352380D01*
X41942857Y-25400000D01*
X42038095Y-25495238D01*
X42085714Y-25590476D01*
X42133333Y-25780952D01*
X42133333Y-25923809D01*
X42085714Y-26114285D01*
X42038095Y-26209523D01*
X41942857Y-26304761D01*
X41800000Y-26352380D01*
X41561904Y-26352380D01*
X43085714Y-26352380D02*
X42514285Y-26352380D01*
X42800000Y-26352380D02*
X42800000Y-25352380D01*
X42704761Y-25495238D01*
X42609523Y-25590476D01*
X42514285Y-25638095D01*
X41861904Y-31652380D02*
X41861904Y-30652380D01*
X42100000Y-30652380D01*
X42242857Y-30700000D01*
X42338095Y-30795238D01*
X42385714Y-30890476D01*
X42433333Y-31080952D01*
X42433333Y-31223809D01*
X42385714Y-31414285D01*
X42338095Y-31509523D01*
X42242857Y-31604761D01*
X42100000Y-31652380D01*
X41861904Y-31652380D01*
X42814285Y-30747619D02*
X42861904Y-30700000D01*
X42957142Y-30652380D01*
X43195238Y-30652380D01*
X43290476Y-30700000D01*
X43338095Y-30747619D01*
X43385714Y-30842857D01*
X43385714Y-30938095D01*
X43338095Y-31080952D01*
X42766666Y-31652380D01*
X43385714Y-31652380D01*
X41861904Y-36877380D02*
X41861904Y-35877380D01*
X42100000Y-35877380D01*
X42242857Y-35925000D01*
X42338095Y-36020238D01*
X42385714Y-36115476D01*
X42433333Y-36305952D01*
X42433333Y-36448809D01*
X42385714Y-36639285D01*
X42338095Y-36734523D01*
X42242857Y-36829761D01*
X42100000Y-36877380D01*
X41861904Y-36877380D01*
X42766666Y-35877380D02*
X43385714Y-35877380D01*
X43052380Y-36258333D01*
X43195238Y-36258333D01*
X43290476Y-36305952D01*
X43338095Y-36353571D01*
X43385714Y-36448809D01*
X43385714Y-36686904D01*
X43338095Y-36782142D01*
X43290476Y-36829761D01*
X43195238Y-36877380D01*
X42909523Y-36877380D01*
X42814285Y-36829761D01*
X42766666Y-36782142D01*
X41861904Y-42502380D02*
X41861904Y-41502380D01*
X42100000Y-41502380D01*
X42242857Y-41550000D01*
X42338095Y-41645238D01*
X42385714Y-41740476D01*
X42433333Y-41930952D01*
X42433333Y-42073809D01*
X42385714Y-42264285D01*
X42338095Y-42359523D01*
X42242857Y-42454761D01*
X42100000Y-42502380D01*
X41861904Y-42502380D01*
X43290476Y-41835714D02*
X43290476Y-42502380D01*
X43052380Y-41454761D02*
X42814285Y-42169047D01*
X43433333Y-42169047D01*
X41836904Y-47927380D02*
X41836904Y-46927380D01*
X42075000Y-46927380D01*
X42217857Y-46975000D01*
X42313095Y-47070238D01*
X42360714Y-47165476D01*
X42408333Y-47355952D01*
X42408333Y-47498809D01*
X42360714Y-47689285D01*
X42313095Y-47784523D01*
X42217857Y-47879761D01*
X42075000Y-47927380D01*
X41836904Y-47927380D01*
X43313095Y-46927380D02*
X42836904Y-46927380D01*
X42789285Y-47403571D01*
X42836904Y-47355952D01*
X42932142Y-47308333D01*
X43170238Y-47308333D01*
X43265476Y-47355952D01*
X43313095Y-47403571D01*
X43360714Y-47498809D01*
X43360714Y-47736904D01*
X43313095Y-47832142D01*
X43265476Y-47879761D01*
X43170238Y-47927380D01*
X42932142Y-47927380D01*
X42836904Y-47879761D01*
X42789285Y-47832142D01*
X50460714Y-26352380D02*
X50460714Y-25352380D01*
X50698809Y-25352380D01*
X50841666Y-25400000D01*
X50936904Y-25495238D01*
X50984523Y-25590476D01*
X51032142Y-25780952D01*
X51032142Y-25923809D01*
X50984523Y-26114285D01*
X50936904Y-26209523D01*
X50841666Y-26304761D01*
X50698809Y-26352380D01*
X50460714Y-26352380D01*
X51984523Y-26352380D02*
X51413095Y-26352380D01*
X51698809Y-26352380D02*
X51698809Y-25352380D01*
X51603571Y-25495238D01*
X51508333Y-25590476D01*
X51413095Y-25638095D01*
X52365476Y-25447619D02*
X52413095Y-25400000D01*
X52508333Y-25352380D01*
X52746428Y-25352380D01*
X52841666Y-25400000D01*
X52889285Y-25447619D01*
X52936904Y-25542857D01*
X52936904Y-25638095D01*
X52889285Y-25780952D01*
X52317857Y-26352380D01*
X52936904Y-26352380D01*
X35315714Y-22792380D02*
X35315714Y-21792380D01*
X35553809Y-21792380D01*
X35696666Y-21840000D01*
X35791904Y-21935238D01*
X35839523Y-22030476D01*
X35887142Y-22220952D01*
X35887142Y-22363809D01*
X35839523Y-22554285D01*
X35791904Y-22649523D01*
X35696666Y-22744761D01*
X35553809Y-22792380D01*
X35315714Y-22792380D01*
X36839523Y-22792380D02*
X36268095Y-22792380D01*
X36553809Y-22792380D02*
X36553809Y-21792380D01*
X36458571Y-21935238D01*
X36363333Y-22030476D01*
X36268095Y-22078095D01*
X37744285Y-21792380D02*
X37268095Y-21792380D01*
X37220476Y-22268571D01*
X37268095Y-22220952D01*
X37363333Y-22173333D01*
X37601428Y-22173333D01*
X37696666Y-22220952D01*
X37744285Y-22268571D01*
X37791904Y-22363809D01*
X37791904Y-22601904D01*
X37744285Y-22697142D01*
X37696666Y-22744761D01*
X37601428Y-22792380D01*
X37363333Y-22792380D01*
X37268095Y-22744761D01*
X37220476Y-22697142D01*
X113302380Y-47654285D02*
X112302380Y-47654285D01*
X112302380Y-47416190D01*
X112350000Y-47273333D01*
X112445238Y-47178095D01*
X112540476Y-47130476D01*
X112730952Y-47082857D01*
X112873809Y-47082857D01*
X113064285Y-47130476D01*
X113159523Y-47178095D01*
X113254761Y-47273333D01*
X113302380Y-47416190D01*
X113302380Y-47654285D01*
X113302380Y-46130476D02*
X113302380Y-46701904D01*
X113302380Y-46416190D02*
X112302380Y-46416190D01*
X112445238Y-46511428D01*
X112540476Y-46606666D01*
X112588095Y-46701904D01*
X112302380Y-45273333D02*
X112302380Y-45463809D01*
X112350000Y-45559047D01*
X112397619Y-45606666D01*
X112540476Y-45701904D01*
X112730952Y-45749523D01*
X113111904Y-45749523D01*
X113207142Y-45701904D01*
X113254761Y-45654285D01*
X113302380Y-45559047D01*
X113302380Y-45368571D01*
X113254761Y-45273333D01*
X113207142Y-45225714D01*
X113111904Y-45178095D01*
X112873809Y-45178095D01*
X112778571Y-45225714D01*
X112730952Y-45273333D01*
X112683333Y-45368571D01*
X112683333Y-45559047D01*
X112730952Y-45654285D01*
X112778571Y-45701904D01*
X112873809Y-45749523D01*
X115712380Y-47664285D02*
X114712380Y-47664285D01*
X114712380Y-47426190D01*
X114760000Y-47283333D01*
X114855238Y-47188095D01*
X114950476Y-47140476D01*
X115140952Y-47092857D01*
X115283809Y-47092857D01*
X115474285Y-47140476D01*
X115569523Y-47188095D01*
X115664761Y-47283333D01*
X115712380Y-47426190D01*
X115712380Y-47664285D01*
X115712380Y-46140476D02*
X115712380Y-46711904D01*
X115712380Y-46426190D02*
X114712380Y-46426190D01*
X114855238Y-46521428D01*
X114950476Y-46616666D01*
X114998095Y-46711904D01*
X114712380Y-45807142D02*
X114712380Y-45140476D01*
X115712380Y-45569047D01*
X110942380Y-47744285D02*
X109942380Y-47744285D01*
X109942380Y-47506190D01*
X109990000Y-47363333D01*
X110085238Y-47268095D01*
X110180476Y-47220476D01*
X110370952Y-47172857D01*
X110513809Y-47172857D01*
X110704285Y-47220476D01*
X110799523Y-47268095D01*
X110894761Y-47363333D01*
X110942380Y-47506190D01*
X110942380Y-47744285D01*
X110942380Y-46220476D02*
X110942380Y-46791904D01*
X110942380Y-46506190D02*
X109942380Y-46506190D01*
X110085238Y-46601428D01*
X110180476Y-46696666D01*
X110228095Y-46791904D01*
X110370952Y-45649047D02*
X110323333Y-45744285D01*
X110275714Y-45791904D01*
X110180476Y-45839523D01*
X110132857Y-45839523D01*
X110037619Y-45791904D01*
X109990000Y-45744285D01*
X109942380Y-45649047D01*
X109942380Y-45458571D01*
X109990000Y-45363333D01*
X110037619Y-45315714D01*
X110132857Y-45268095D01*
X110180476Y-45268095D01*
X110275714Y-45315714D01*
X110323333Y-45363333D01*
X110370952Y-45458571D01*
X110370952Y-45649047D01*
X110418571Y-45744285D01*
X110466190Y-45791904D01*
X110561428Y-45839523D01*
X110751904Y-45839523D01*
X110847142Y-45791904D01*
X110894761Y-45744285D01*
X110942380Y-45649047D01*
X110942380Y-45458571D01*
X110894761Y-45363333D01*
X110847142Y-45315714D01*
X110751904Y-45268095D01*
X110561428Y-45268095D01*
X110466190Y-45315714D01*
X110418571Y-45363333D01*
X110370952Y-45458571D01*
X29441666Y-27752380D02*
X29441666Y-28466666D01*
X29394047Y-28609523D01*
X29298809Y-28704761D01*
X29155952Y-28752380D01*
X29060714Y-28752380D01*
X30441666Y-28752380D02*
X29870238Y-28752380D01*
X30155952Y-28752380D02*
X30155952Y-27752380D01*
X30060714Y-27895238D01*
X29965476Y-27990476D01*
X29870238Y-28038095D01*
X28927380Y-21883333D02*
X29641666Y-21883333D01*
X29784523Y-21930952D01*
X29879761Y-22026190D01*
X29927380Y-22169047D01*
X29927380Y-22264285D01*
X29022619Y-21454761D02*
X28975000Y-21407142D01*
X28927380Y-21311904D01*
X28927380Y-21073809D01*
X28975000Y-20978571D01*
X29022619Y-20930952D01*
X29117857Y-20883333D01*
X29213095Y-20883333D01*
X29355952Y-20930952D01*
X29927380Y-21502380D01*
X29927380Y-20883333D01*
X29616666Y-58412380D02*
X29616666Y-59126666D01*
X29569047Y-59269523D01*
X29473809Y-59364761D01*
X29330952Y-59412380D01*
X29235714Y-59412380D01*
X30521428Y-58745714D02*
X30521428Y-59412380D01*
X30283333Y-58364761D02*
X30045238Y-59079047D01*
X30664285Y-59079047D01*
X50416666Y-51352380D02*
X50416666Y-52066666D01*
X50369047Y-52209523D01*
X50273809Y-52304761D01*
X50130952Y-52352380D01*
X50035714Y-52352380D01*
X51369047Y-51352380D02*
X50892857Y-51352380D01*
X50845238Y-51828571D01*
X50892857Y-51780952D01*
X50988095Y-51733333D01*
X51226190Y-51733333D01*
X51321428Y-51780952D01*
X51369047Y-51828571D01*
X51416666Y-51923809D01*
X51416666Y-52161904D01*
X51369047Y-52257142D01*
X51321428Y-52304761D01*
X51226190Y-52352380D01*
X50988095Y-52352380D01*
X50892857Y-52304761D01*
X50845238Y-52257142D01*
X103736666Y-46812380D02*
X103736666Y-47526666D01*
X103689047Y-47669523D01*
X103593809Y-47764761D01*
X103450952Y-47812380D01*
X103355714Y-47812380D01*
X104641428Y-46812380D02*
X104450952Y-46812380D01*
X104355714Y-46860000D01*
X104308095Y-46907619D01*
X104212857Y-47050476D01*
X104165238Y-47240952D01*
X104165238Y-47621904D01*
X104212857Y-47717142D01*
X104260476Y-47764761D01*
X104355714Y-47812380D01*
X104546190Y-47812380D01*
X104641428Y-47764761D01*
X104689047Y-47717142D01*
X104736666Y-47621904D01*
X104736666Y-47383809D01*
X104689047Y-47288571D01*
X104641428Y-47240952D01*
X104546190Y-47193333D01*
X104355714Y-47193333D01*
X104260476Y-47240952D01*
X104212857Y-47288571D01*
X104165238Y-47383809D01*
X113626666Y-21782380D02*
X113626666Y-22496666D01*
X113579047Y-22639523D01*
X113483809Y-22734761D01*
X113340952Y-22782380D01*
X113245714Y-22782380D01*
X114007619Y-21782380D02*
X114674285Y-21782380D01*
X114245714Y-22782380D01*
X93090476Y-39802380D02*
X93090476Y-40516666D01*
X93042857Y-40659523D01*
X92947619Y-40754761D01*
X92804761Y-40802380D01*
X92709523Y-40802380D01*
X94090476Y-40802380D02*
X93519047Y-40802380D01*
X93804761Y-40802380D02*
X93804761Y-39802380D01*
X93709523Y-39945238D01*
X93614285Y-40040476D01*
X93519047Y-40088095D01*
X94709523Y-39802380D02*
X94804761Y-39802380D01*
X94900000Y-39850000D01*
X94947619Y-39897619D01*
X94995238Y-39992857D01*
X95042857Y-40183333D01*
X95042857Y-40421428D01*
X94995238Y-40611904D01*
X94947619Y-40707142D01*
X94900000Y-40754761D01*
X94804761Y-40802380D01*
X94709523Y-40802380D01*
X94614285Y-40754761D01*
X94566666Y-40707142D01*
X94519047Y-40611904D01*
X94471428Y-40421428D01*
X94471428Y-40183333D01*
X94519047Y-39992857D01*
X94566666Y-39897619D01*
X94614285Y-39850000D01*
X94709523Y-39802380D01*
X104840476Y-30432380D02*
X104840476Y-31146666D01*
X104792857Y-31289523D01*
X104697619Y-31384761D01*
X104554761Y-31432380D01*
X104459523Y-31432380D01*
X105840476Y-31432380D02*
X105269047Y-31432380D01*
X105554761Y-31432380D02*
X105554761Y-30432380D01*
X105459523Y-30575238D01*
X105364285Y-30670476D01*
X105269047Y-30718095D01*
X106792857Y-31432380D02*
X106221428Y-31432380D01*
X106507142Y-31432380D02*
X106507142Y-30432380D01*
X106411904Y-30575238D01*
X106316666Y-30670476D01*
X106221428Y-30718095D01*
X39604761Y-26747619D02*
X39509523Y-26700000D01*
X39414285Y-26604761D01*
X39271428Y-26461904D01*
X39176190Y-26414285D01*
X39080952Y-26414285D01*
X39128571Y-26652380D02*
X39033333Y-26604761D01*
X38938095Y-26509523D01*
X38890476Y-26319047D01*
X38890476Y-25985714D01*
X38938095Y-25795238D01*
X39033333Y-25700000D01*
X39128571Y-25652380D01*
X39319047Y-25652380D01*
X39414285Y-25700000D01*
X39509523Y-25795238D01*
X39557142Y-25985714D01*
X39557142Y-26319047D01*
X39509523Y-26509523D01*
X39414285Y-26604761D01*
X39319047Y-26652380D01*
X39128571Y-26652380D01*
X40509523Y-26652380D02*
X39938095Y-26652380D01*
X40223809Y-26652380D02*
X40223809Y-25652380D01*
X40128571Y-25795238D01*
X40033333Y-25890476D01*
X39938095Y-25938095D01*
X39604761Y-31747619D02*
X39509523Y-31700000D01*
X39414285Y-31604761D01*
X39271428Y-31461904D01*
X39176190Y-31414285D01*
X39080952Y-31414285D01*
X39128571Y-31652380D02*
X39033333Y-31604761D01*
X38938095Y-31509523D01*
X38890476Y-31319047D01*
X38890476Y-30985714D01*
X38938095Y-30795238D01*
X39033333Y-30700000D01*
X39128571Y-30652380D01*
X39319047Y-30652380D01*
X39414285Y-30700000D01*
X39509523Y-30795238D01*
X39557142Y-30985714D01*
X39557142Y-31319047D01*
X39509523Y-31509523D01*
X39414285Y-31604761D01*
X39319047Y-31652380D01*
X39128571Y-31652380D01*
X39938095Y-30747619D02*
X39985714Y-30700000D01*
X40080952Y-30652380D01*
X40319047Y-30652380D01*
X40414285Y-30700000D01*
X40461904Y-30747619D01*
X40509523Y-30842857D01*
X40509523Y-30938095D01*
X40461904Y-31080952D01*
X39890476Y-31652380D01*
X40509523Y-31652380D01*
X39604761Y-37047619D02*
X39509523Y-37000000D01*
X39414285Y-36904761D01*
X39271428Y-36761904D01*
X39176190Y-36714285D01*
X39080952Y-36714285D01*
X39128571Y-36952380D02*
X39033333Y-36904761D01*
X38938095Y-36809523D01*
X38890476Y-36619047D01*
X38890476Y-36285714D01*
X38938095Y-36095238D01*
X39033333Y-36000000D01*
X39128571Y-35952380D01*
X39319047Y-35952380D01*
X39414285Y-36000000D01*
X39509523Y-36095238D01*
X39557142Y-36285714D01*
X39557142Y-36619047D01*
X39509523Y-36809523D01*
X39414285Y-36904761D01*
X39319047Y-36952380D01*
X39128571Y-36952380D01*
X39890476Y-35952380D02*
X40509523Y-35952380D01*
X40176190Y-36333333D01*
X40319047Y-36333333D01*
X40414285Y-36380952D01*
X40461904Y-36428571D01*
X40509523Y-36523809D01*
X40509523Y-36761904D01*
X40461904Y-36857142D01*
X40414285Y-36904761D01*
X40319047Y-36952380D01*
X40033333Y-36952380D01*
X39938095Y-36904761D01*
X39890476Y-36857142D01*
X39604761Y-42547619D02*
X39509523Y-42500000D01*
X39414285Y-42404761D01*
X39271428Y-42261904D01*
X39176190Y-42214285D01*
X39080952Y-42214285D01*
X39128571Y-42452380D02*
X39033333Y-42404761D01*
X38938095Y-42309523D01*
X38890476Y-42119047D01*
X38890476Y-41785714D01*
X38938095Y-41595238D01*
X39033333Y-41500000D01*
X39128571Y-41452380D01*
X39319047Y-41452380D01*
X39414285Y-41500000D01*
X39509523Y-41595238D01*
X39557142Y-41785714D01*
X39557142Y-42119047D01*
X39509523Y-42309523D01*
X39414285Y-42404761D01*
X39319047Y-42452380D01*
X39128571Y-42452380D01*
X40414285Y-41785714D02*
X40414285Y-42452380D01*
X40176190Y-41404761D02*
X39938095Y-42119047D01*
X40557142Y-42119047D01*
X39604761Y-48047619D02*
X39509523Y-48000000D01*
X39414285Y-47904761D01*
X39271428Y-47761904D01*
X39176190Y-47714285D01*
X39080952Y-47714285D01*
X39128571Y-47952380D02*
X39033333Y-47904761D01*
X38938095Y-47809523D01*
X38890476Y-47619047D01*
X38890476Y-47285714D01*
X38938095Y-47095238D01*
X39033333Y-47000000D01*
X39128571Y-46952380D01*
X39319047Y-46952380D01*
X39414285Y-47000000D01*
X39509523Y-47095238D01*
X39557142Y-47285714D01*
X39557142Y-47619047D01*
X39509523Y-47809523D01*
X39414285Y-47904761D01*
X39319047Y-47952380D01*
X39128571Y-47952380D01*
X40461904Y-46952380D02*
X39985714Y-46952380D01*
X39938095Y-47428571D01*
X39985714Y-47380952D01*
X40080952Y-47333333D01*
X40319047Y-47333333D01*
X40414285Y-47380952D01*
X40461904Y-47428571D01*
X40509523Y-47523809D01*
X40509523Y-47761904D01*
X40461904Y-47857142D01*
X40414285Y-47904761D01*
X40319047Y-47952380D01*
X40080952Y-47952380D01*
X39985714Y-47904761D01*
X39938095Y-47857142D01*
X78938571Y-46447619D02*
X78843333Y-46400000D01*
X78748095Y-46304761D01*
X78605238Y-46161904D01*
X78510000Y-46114285D01*
X78414761Y-46114285D01*
X78462380Y-46352380D02*
X78367142Y-46304761D01*
X78271904Y-46209523D01*
X78224285Y-46019047D01*
X78224285Y-45685714D01*
X78271904Y-45495238D01*
X78367142Y-45400000D01*
X78462380Y-45352380D01*
X78652857Y-45352380D01*
X78748095Y-45400000D01*
X78843333Y-45495238D01*
X78890952Y-45685714D01*
X78890952Y-46019047D01*
X78843333Y-46209523D01*
X78748095Y-46304761D01*
X78652857Y-46352380D01*
X78462380Y-46352380D01*
X79843333Y-46352380D02*
X79271904Y-46352380D01*
X79557619Y-46352380D02*
X79557619Y-45352380D01*
X79462380Y-45495238D01*
X79367142Y-45590476D01*
X79271904Y-45638095D01*
X80795714Y-46352380D02*
X80224285Y-46352380D01*
X80510000Y-46352380D02*
X80510000Y-45352380D01*
X80414761Y-45495238D01*
X80319523Y-45590476D01*
X80224285Y-45638095D01*
X89408571Y-46397619D02*
X89313333Y-46350000D01*
X89218095Y-46254761D01*
X89075238Y-46111904D01*
X88980000Y-46064285D01*
X88884761Y-46064285D01*
X88932380Y-46302380D02*
X88837142Y-46254761D01*
X88741904Y-46159523D01*
X88694285Y-45969047D01*
X88694285Y-45635714D01*
X88741904Y-45445238D01*
X88837142Y-45350000D01*
X88932380Y-45302380D01*
X89122857Y-45302380D01*
X89218095Y-45350000D01*
X89313333Y-45445238D01*
X89360952Y-45635714D01*
X89360952Y-45969047D01*
X89313333Y-46159523D01*
X89218095Y-46254761D01*
X89122857Y-46302380D01*
X88932380Y-46302380D01*
X90313333Y-46302380D02*
X89741904Y-46302380D01*
X90027619Y-46302380D02*
X90027619Y-45302380D01*
X89932380Y-45445238D01*
X89837142Y-45540476D01*
X89741904Y-45588095D01*
X90694285Y-45397619D02*
X90741904Y-45350000D01*
X90837142Y-45302380D01*
X91075238Y-45302380D01*
X91170476Y-45350000D01*
X91218095Y-45397619D01*
X91265714Y-45492857D01*
X91265714Y-45588095D01*
X91218095Y-45730952D01*
X90646666Y-46302380D01*
X91265714Y-46302380D01*
X31957142Y-27052380D02*
X31623809Y-26576190D01*
X31385714Y-27052380D02*
X31385714Y-26052380D01*
X31766666Y-26052380D01*
X31861904Y-26100000D01*
X31909523Y-26147619D01*
X31957142Y-26242857D01*
X31957142Y-26385714D01*
X31909523Y-26480952D01*
X31861904Y-26528571D01*
X31766666Y-26576190D01*
X31385714Y-26576190D01*
X32909523Y-27052380D02*
X32338095Y-27052380D01*
X32623809Y-27052380D02*
X32623809Y-26052380D01*
X32528571Y-26195238D01*
X32433333Y-26290476D01*
X32338095Y-26338095D01*
X33290476Y-26147619D02*
X33338095Y-26100000D01*
X33433333Y-26052380D01*
X33671428Y-26052380D01*
X33766666Y-26100000D01*
X33814285Y-26147619D01*
X33861904Y-26242857D01*
X33861904Y-26338095D01*
X33814285Y-26480952D01*
X33242857Y-27052380D01*
X33861904Y-27052380D01*
X44582142Y-26527380D02*
X44248809Y-26051190D01*
X44010714Y-26527380D02*
X44010714Y-25527380D01*
X44391666Y-25527380D01*
X44486904Y-25575000D01*
X44534523Y-25622619D01*
X44582142Y-25717857D01*
X44582142Y-25860714D01*
X44534523Y-25955952D01*
X44486904Y-26003571D01*
X44391666Y-26051190D01*
X44010714Y-26051190D01*
X45534523Y-26527380D02*
X44963095Y-26527380D01*
X45248809Y-26527380D02*
X45248809Y-25527380D01*
X45153571Y-25670238D01*
X45058333Y-25765476D01*
X44963095Y-25813095D01*
X45867857Y-25527380D02*
X46486904Y-25527380D01*
X46153571Y-25908333D01*
X46296428Y-25908333D01*
X46391666Y-25955952D01*
X46439285Y-26003571D01*
X46486904Y-26098809D01*
X46486904Y-26336904D01*
X46439285Y-26432142D01*
X46391666Y-26479761D01*
X46296428Y-26527380D01*
X46010714Y-26527380D01*
X45915476Y-26479761D01*
X45867857Y-26432142D01*
X32032142Y-32152380D02*
X31698809Y-31676190D01*
X31460714Y-32152380D02*
X31460714Y-31152380D01*
X31841666Y-31152380D01*
X31936904Y-31200000D01*
X31984523Y-31247619D01*
X32032142Y-31342857D01*
X32032142Y-31485714D01*
X31984523Y-31580952D01*
X31936904Y-31628571D01*
X31841666Y-31676190D01*
X31460714Y-31676190D01*
X32984523Y-32152380D02*
X32413095Y-32152380D01*
X32698809Y-32152380D02*
X32698809Y-31152380D01*
X32603571Y-31295238D01*
X32508333Y-31390476D01*
X32413095Y-31438095D01*
X33841666Y-31485714D02*
X33841666Y-32152380D01*
X33603571Y-31104761D02*
X33365476Y-31819047D01*
X33984523Y-31819047D01*
X44357142Y-31952380D02*
X44023809Y-31476190D01*
X43785714Y-31952380D02*
X43785714Y-30952380D01*
X44166666Y-30952380D01*
X44261904Y-31000000D01*
X44309523Y-31047619D01*
X44357142Y-31142857D01*
X44357142Y-31285714D01*
X44309523Y-31380952D01*
X44261904Y-31428571D01*
X44166666Y-31476190D01*
X43785714Y-31476190D01*
X45309523Y-31952380D02*
X44738095Y-31952380D01*
X45023809Y-31952380D02*
X45023809Y-30952380D01*
X44928571Y-31095238D01*
X44833333Y-31190476D01*
X44738095Y-31238095D01*
X46214285Y-30952380D02*
X45738095Y-30952380D01*
X45690476Y-31428571D01*
X45738095Y-31380952D01*
X45833333Y-31333333D01*
X46071428Y-31333333D01*
X46166666Y-31380952D01*
X46214285Y-31428571D01*
X46261904Y-31523809D01*
X46261904Y-31761904D01*
X46214285Y-31857142D01*
X46166666Y-31904761D01*
X46071428Y-31952380D01*
X45833333Y-31952380D01*
X45738095Y-31904761D01*
X45690476Y-31857142D01*
X31957142Y-37452380D02*
X31623809Y-36976190D01*
X31385714Y-37452380D02*
X31385714Y-36452380D01*
X31766666Y-36452380D01*
X31861904Y-36500000D01*
X31909523Y-36547619D01*
X31957142Y-36642857D01*
X31957142Y-36785714D01*
X31909523Y-36880952D01*
X31861904Y-36928571D01*
X31766666Y-36976190D01*
X31385714Y-36976190D01*
X32909523Y-37452380D02*
X32338095Y-37452380D01*
X32623809Y-37452380D02*
X32623809Y-36452380D01*
X32528571Y-36595238D01*
X32433333Y-36690476D01*
X32338095Y-36738095D01*
X33766666Y-36452380D02*
X33576190Y-36452380D01*
X33480952Y-36500000D01*
X33433333Y-36547619D01*
X33338095Y-36690476D01*
X33290476Y-36880952D01*
X33290476Y-37261904D01*
X33338095Y-37357142D01*
X33385714Y-37404761D01*
X33480952Y-37452380D01*
X33671428Y-37452380D01*
X33766666Y-37404761D01*
X33814285Y-37357142D01*
X33861904Y-37261904D01*
X33861904Y-37023809D01*
X33814285Y-36928571D01*
X33766666Y-36880952D01*
X33671428Y-36833333D01*
X33480952Y-36833333D01*
X33385714Y-36880952D01*
X33338095Y-36928571D01*
X33290476Y-37023809D01*
X44807142Y-37002380D02*
X44473809Y-36526190D01*
X44235714Y-37002380D02*
X44235714Y-36002380D01*
X44616666Y-36002380D01*
X44711904Y-36050000D01*
X44759523Y-36097619D01*
X44807142Y-36192857D01*
X44807142Y-36335714D01*
X44759523Y-36430952D01*
X44711904Y-36478571D01*
X44616666Y-36526190D01*
X44235714Y-36526190D01*
X45759523Y-37002380D02*
X45188095Y-37002380D01*
X45473809Y-37002380D02*
X45473809Y-36002380D01*
X45378571Y-36145238D01*
X45283333Y-36240476D01*
X45188095Y-36288095D01*
X46092857Y-36002380D02*
X46759523Y-36002380D01*
X46330952Y-37002380D01*
X31957142Y-42952380D02*
X31623809Y-42476190D01*
X31385714Y-42952380D02*
X31385714Y-41952380D01*
X31766666Y-41952380D01*
X31861904Y-42000000D01*
X31909523Y-42047619D01*
X31957142Y-42142857D01*
X31957142Y-42285714D01*
X31909523Y-42380952D01*
X31861904Y-42428571D01*
X31766666Y-42476190D01*
X31385714Y-42476190D01*
X32909523Y-42952380D02*
X32338095Y-42952380D01*
X32623809Y-42952380D02*
X32623809Y-41952380D01*
X32528571Y-42095238D01*
X32433333Y-42190476D01*
X32338095Y-42238095D01*
X33480952Y-42380952D02*
X33385714Y-42333333D01*
X33338095Y-42285714D01*
X33290476Y-42190476D01*
X33290476Y-42142857D01*
X33338095Y-42047619D01*
X33385714Y-42000000D01*
X33480952Y-41952380D01*
X33671428Y-41952380D01*
X33766666Y-42000000D01*
X33814285Y-42047619D01*
X33861904Y-42142857D01*
X33861904Y-42190476D01*
X33814285Y-42285714D01*
X33766666Y-42333333D01*
X33671428Y-42380952D01*
X33480952Y-42380952D01*
X33385714Y-42428571D01*
X33338095Y-42476190D01*
X33290476Y-42571428D01*
X33290476Y-42761904D01*
X33338095Y-42857142D01*
X33385714Y-42904761D01*
X33480952Y-42952380D01*
X33671428Y-42952380D01*
X33766666Y-42904761D01*
X33814285Y-42857142D01*
X33861904Y-42761904D01*
X33861904Y-42571428D01*
X33814285Y-42476190D01*
X33766666Y-42428571D01*
X33671428Y-42380952D01*
X44632142Y-42377380D02*
X44298809Y-41901190D01*
X44060714Y-42377380D02*
X44060714Y-41377380D01*
X44441666Y-41377380D01*
X44536904Y-41425000D01*
X44584523Y-41472619D01*
X44632142Y-41567857D01*
X44632142Y-41710714D01*
X44584523Y-41805952D01*
X44536904Y-41853571D01*
X44441666Y-41901190D01*
X44060714Y-41901190D01*
X45584523Y-42377380D02*
X45013095Y-42377380D01*
X45298809Y-42377380D02*
X45298809Y-41377380D01*
X45203571Y-41520238D01*
X45108333Y-41615476D01*
X45013095Y-41663095D01*
X46060714Y-42377380D02*
X46251190Y-42377380D01*
X46346428Y-42329761D01*
X46394047Y-42282142D01*
X46489285Y-42139285D01*
X46536904Y-41948809D01*
X46536904Y-41567857D01*
X46489285Y-41472619D01*
X46441666Y-41425000D01*
X46346428Y-41377380D01*
X46155952Y-41377380D01*
X46060714Y-41425000D01*
X46013095Y-41472619D01*
X45965476Y-41567857D01*
X45965476Y-41805952D01*
X46013095Y-41901190D01*
X46060714Y-41948809D01*
X46155952Y-41996428D01*
X46346428Y-41996428D01*
X46441666Y-41948809D01*
X46489285Y-41901190D01*
X46536904Y-41805952D01*
X32157142Y-48477380D02*
X31823809Y-48001190D01*
X31585714Y-48477380D02*
X31585714Y-47477380D01*
X31966666Y-47477380D01*
X32061904Y-47525000D01*
X32109523Y-47572619D01*
X32157142Y-47667857D01*
X32157142Y-47810714D01*
X32109523Y-47905952D01*
X32061904Y-47953571D01*
X31966666Y-48001190D01*
X31585714Y-48001190D01*
X32538095Y-47572619D02*
X32585714Y-47525000D01*
X32680952Y-47477380D01*
X32919047Y-47477380D01*
X33014285Y-47525000D01*
X33061904Y-47572619D01*
X33109523Y-47667857D01*
X33109523Y-47763095D01*
X33061904Y-47905952D01*
X32490476Y-48477380D01*
X33109523Y-48477380D01*
X33728571Y-47477380D02*
X33823809Y-47477380D01*
X33919047Y-47525000D01*
X33966666Y-47572619D01*
X34014285Y-47667857D01*
X34061904Y-47858333D01*
X34061904Y-48096428D01*
X34014285Y-48286904D01*
X33966666Y-48382142D01*
X33919047Y-48429761D01*
X33823809Y-48477380D01*
X33728571Y-48477380D01*
X33633333Y-48429761D01*
X33585714Y-48382142D01*
X33538095Y-48286904D01*
X33490476Y-48096428D01*
X33490476Y-47858333D01*
X33538095Y-47667857D01*
X33585714Y-47572619D01*
X33633333Y-47525000D01*
X33728571Y-47477380D01*
X44707142Y-47827380D02*
X44373809Y-47351190D01*
X44135714Y-47827380D02*
X44135714Y-46827380D01*
X44516666Y-46827380D01*
X44611904Y-46875000D01*
X44659523Y-46922619D01*
X44707142Y-47017857D01*
X44707142Y-47160714D01*
X44659523Y-47255952D01*
X44611904Y-47303571D01*
X44516666Y-47351190D01*
X44135714Y-47351190D01*
X45088095Y-46922619D02*
X45135714Y-46875000D01*
X45230952Y-46827380D01*
X45469047Y-46827380D01*
X45564285Y-46875000D01*
X45611904Y-46922619D01*
X45659523Y-47017857D01*
X45659523Y-47113095D01*
X45611904Y-47255952D01*
X45040476Y-47827380D01*
X45659523Y-47827380D01*
X46611904Y-47827380D02*
X46040476Y-47827380D01*
X46326190Y-47827380D02*
X46326190Y-46827380D01*
X46230952Y-46970238D01*
X46135714Y-47065476D01*
X46040476Y-47113095D01*
X42982142Y-55502380D02*
X42648809Y-55026190D01*
X42410714Y-55502380D02*
X42410714Y-54502380D01*
X42791666Y-54502380D01*
X42886904Y-54550000D01*
X42934523Y-54597619D01*
X42982142Y-54692857D01*
X42982142Y-54835714D01*
X42934523Y-54930952D01*
X42886904Y-54978571D01*
X42791666Y-55026190D01*
X42410714Y-55026190D01*
X43363095Y-54597619D02*
X43410714Y-54550000D01*
X43505952Y-54502380D01*
X43744047Y-54502380D01*
X43839285Y-54550000D01*
X43886904Y-54597619D01*
X43934523Y-54692857D01*
X43934523Y-54788095D01*
X43886904Y-54930952D01*
X43315476Y-55502380D01*
X43934523Y-55502380D01*
X44315476Y-54597619D02*
X44363095Y-54550000D01*
X44458333Y-54502380D01*
X44696428Y-54502380D01*
X44791666Y-54550000D01*
X44839285Y-54597619D01*
X44886904Y-54692857D01*
X44886904Y-54788095D01*
X44839285Y-54930952D01*
X44267857Y-55502380D01*
X44886904Y-55502380D01*
X35457142Y-56102380D02*
X35123809Y-55626190D01*
X34885714Y-56102380D02*
X34885714Y-55102380D01*
X35266666Y-55102380D01*
X35361904Y-55150000D01*
X35409523Y-55197619D01*
X35457142Y-55292857D01*
X35457142Y-55435714D01*
X35409523Y-55530952D01*
X35361904Y-55578571D01*
X35266666Y-55626190D01*
X34885714Y-55626190D01*
X35838095Y-55197619D02*
X35885714Y-55150000D01*
X35980952Y-55102380D01*
X36219047Y-55102380D01*
X36314285Y-55150000D01*
X36361904Y-55197619D01*
X36409523Y-55292857D01*
X36409523Y-55388095D01*
X36361904Y-55530952D01*
X35790476Y-56102380D01*
X36409523Y-56102380D01*
X36742857Y-55102380D02*
X37361904Y-55102380D01*
X37028571Y-55483333D01*
X37171428Y-55483333D01*
X37266666Y-55530952D01*
X37314285Y-55578571D01*
X37361904Y-55673809D01*
X37361904Y-55911904D01*
X37314285Y-56007142D01*
X37266666Y-56054761D01*
X37171428Y-56102380D01*
X36885714Y-56102380D01*
X36790476Y-56054761D01*
X36742857Y-56007142D01*
X55007142Y-46002380D02*
X54673809Y-45526190D01*
X54435714Y-46002380D02*
X54435714Y-45002380D01*
X54816666Y-45002380D01*
X54911904Y-45050000D01*
X54959523Y-45097619D01*
X55007142Y-45192857D01*
X55007142Y-45335714D01*
X54959523Y-45430952D01*
X54911904Y-45478571D01*
X54816666Y-45526190D01*
X54435714Y-45526190D01*
X55340476Y-45002380D02*
X55959523Y-45002380D01*
X55626190Y-45383333D01*
X55769047Y-45383333D01*
X55864285Y-45430952D01*
X55911904Y-45478571D01*
X55959523Y-45573809D01*
X55959523Y-45811904D01*
X55911904Y-45907142D01*
X55864285Y-45954761D01*
X55769047Y-46002380D01*
X55483333Y-46002380D01*
X55388095Y-45954761D01*
X55340476Y-45907142D01*
X56864285Y-45002380D02*
X56388095Y-45002380D01*
X56340476Y-45478571D01*
X56388095Y-45430952D01*
X56483333Y-45383333D01*
X56721428Y-45383333D01*
X56816666Y-45430952D01*
X56864285Y-45478571D01*
X56911904Y-45573809D01*
X56911904Y-45811904D01*
X56864285Y-45907142D01*
X56816666Y-45954761D01*
X56721428Y-46002380D01*
X56483333Y-46002380D01*
X56388095Y-45954761D01*
X56340476Y-45907142D01*
X66357142Y-58302380D02*
X66023809Y-57826190D01*
X65785714Y-58302380D02*
X65785714Y-57302380D01*
X66166666Y-57302380D01*
X66261904Y-57350000D01*
X66309523Y-57397619D01*
X66357142Y-57492857D01*
X66357142Y-57635714D01*
X66309523Y-57730952D01*
X66261904Y-57778571D01*
X66166666Y-57826190D01*
X65785714Y-57826190D01*
X66690476Y-57302380D02*
X67309523Y-57302380D01*
X66976190Y-57683333D01*
X67119047Y-57683333D01*
X67214285Y-57730952D01*
X67261904Y-57778571D01*
X67309523Y-57873809D01*
X67309523Y-58111904D01*
X67261904Y-58207142D01*
X67214285Y-58254761D01*
X67119047Y-58302380D01*
X66833333Y-58302380D01*
X66738095Y-58254761D01*
X66690476Y-58207142D01*
X68166666Y-57302380D02*
X67976190Y-57302380D01*
X67880952Y-57350000D01*
X67833333Y-57397619D01*
X67738095Y-57540476D01*
X67690476Y-57730952D01*
X67690476Y-58111904D01*
X67738095Y-58207142D01*
X67785714Y-58254761D01*
X67880952Y-58302380D01*
X68071428Y-58302380D01*
X68166666Y-58254761D01*
X68214285Y-58207142D01*
X68261904Y-58111904D01*
X68261904Y-57873809D01*
X68214285Y-57778571D01*
X68166666Y-57730952D01*
X68071428Y-57683333D01*
X67880952Y-57683333D01*
X67785714Y-57730952D01*
X67738095Y-57778571D01*
X67690476Y-57873809D01*
X65252380Y-48492857D02*
X64776190Y-48826190D01*
X65252380Y-49064285D02*
X64252380Y-49064285D01*
X64252380Y-48683333D01*
X64300000Y-48588095D01*
X64347619Y-48540476D01*
X64442857Y-48492857D01*
X64585714Y-48492857D01*
X64680952Y-48540476D01*
X64728571Y-48588095D01*
X64776190Y-48683333D01*
X64776190Y-49064285D01*
X64252380Y-48159523D02*
X64252380Y-47540476D01*
X64633333Y-47873809D01*
X64633333Y-47730952D01*
X64680952Y-47635714D01*
X64728571Y-47588095D01*
X64823809Y-47540476D01*
X65061904Y-47540476D01*
X65157142Y-47588095D01*
X65204761Y-47635714D01*
X65252380Y-47730952D01*
X65252380Y-48016666D01*
X65204761Y-48111904D01*
X65157142Y-48159523D01*
X64252380Y-47207142D02*
X64252380Y-46540476D01*
X65252380Y-46969047D01*
X52102380Y-39942857D02*
X51626190Y-40276190D01*
X52102380Y-40514285D02*
X51102380Y-40514285D01*
X51102380Y-40133333D01*
X51150000Y-40038095D01*
X51197619Y-39990476D01*
X51292857Y-39942857D01*
X51435714Y-39942857D01*
X51530952Y-39990476D01*
X51578571Y-40038095D01*
X51626190Y-40133333D01*
X51626190Y-40514285D01*
X51102380Y-39609523D02*
X51102380Y-38990476D01*
X51483333Y-39323809D01*
X51483333Y-39180952D01*
X51530952Y-39085714D01*
X51578571Y-39038095D01*
X51673809Y-38990476D01*
X51911904Y-38990476D01*
X52007142Y-39038095D01*
X52054761Y-39085714D01*
X52102380Y-39180952D01*
X52102380Y-39466666D01*
X52054761Y-39561904D01*
X52007142Y-39609523D01*
X52102380Y-38514285D02*
X52102380Y-38323809D01*
X52054761Y-38228571D01*
X52007142Y-38180952D01*
X51864285Y-38085714D01*
X51673809Y-38038095D01*
X51292857Y-38038095D01*
X51197619Y-38085714D01*
X51150000Y-38133333D01*
X51102380Y-38228571D01*
X51102380Y-38419047D01*
X51150000Y-38514285D01*
X51197619Y-38561904D01*
X51292857Y-38609523D01*
X51530952Y-38609523D01*
X51626190Y-38561904D01*
X51673809Y-38514285D01*
X51721428Y-38419047D01*
X51721428Y-38228571D01*
X51673809Y-38133333D01*
X51626190Y-38085714D01*
X51530952Y-38038095D01*
X51807142Y-24327380D02*
X51473809Y-23851190D01*
X51235714Y-24327380D02*
X51235714Y-23327380D01*
X51616666Y-23327380D01*
X51711904Y-23375000D01*
X51759523Y-23422619D01*
X51807142Y-23517857D01*
X51807142Y-23660714D01*
X51759523Y-23755952D01*
X51711904Y-23803571D01*
X51616666Y-23851190D01*
X51235714Y-23851190D01*
X52664285Y-23660714D02*
X52664285Y-24327380D01*
X52426190Y-23279761D02*
X52188095Y-23994047D01*
X52807142Y-23994047D01*
X53140476Y-23422619D02*
X53188095Y-23375000D01*
X53283333Y-23327380D01*
X53521428Y-23327380D01*
X53616666Y-23375000D01*
X53664285Y-23422619D01*
X53711904Y-23517857D01*
X53711904Y-23613095D01*
X53664285Y-23755952D01*
X53092857Y-24327380D01*
X53711904Y-24327380D01*
X61927380Y-38642857D02*
X61451190Y-38976190D01*
X61927380Y-39214285D02*
X60927380Y-39214285D01*
X60927380Y-38833333D01*
X60975000Y-38738095D01*
X61022619Y-38690476D01*
X61117857Y-38642857D01*
X61260714Y-38642857D01*
X61355952Y-38690476D01*
X61403571Y-38738095D01*
X61451190Y-38833333D01*
X61451190Y-39214285D01*
X61260714Y-37785714D02*
X61927380Y-37785714D01*
X60879761Y-38023809D02*
X61594047Y-38261904D01*
X61594047Y-37642857D01*
X60927380Y-37357142D02*
X60927380Y-36738095D01*
X61308333Y-37071428D01*
X61308333Y-36928571D01*
X61355952Y-36833333D01*
X61403571Y-36785714D01*
X61498809Y-36738095D01*
X61736904Y-36738095D01*
X61832142Y-36785714D01*
X61879761Y-36833333D01*
X61927380Y-36928571D01*
X61927380Y-37214285D01*
X61879761Y-37309523D01*
X61832142Y-37357142D01*
X35447142Y-24902380D02*
X35113809Y-24426190D01*
X34875714Y-24902380D02*
X34875714Y-23902380D01*
X35256666Y-23902380D01*
X35351904Y-23950000D01*
X35399523Y-23997619D01*
X35447142Y-24092857D01*
X35447142Y-24235714D01*
X35399523Y-24330952D01*
X35351904Y-24378571D01*
X35256666Y-24426190D01*
X34875714Y-24426190D01*
X36304285Y-24235714D02*
X36304285Y-24902380D01*
X36066190Y-23854761D02*
X35828095Y-24569047D01*
X36447142Y-24569047D01*
X37256666Y-24235714D02*
X37256666Y-24902380D01*
X37018571Y-23854761D02*
X36780476Y-24569047D01*
X37399523Y-24569047D01*
X65357142Y-22802380D02*
X65023809Y-22326190D01*
X64785714Y-22802380D02*
X64785714Y-21802380D01*
X65166666Y-21802380D01*
X65261904Y-21850000D01*
X65309523Y-21897619D01*
X65357142Y-21992857D01*
X65357142Y-22135714D01*
X65309523Y-22230952D01*
X65261904Y-22278571D01*
X65166666Y-22326190D01*
X64785714Y-22326190D01*
X66214285Y-22135714D02*
X66214285Y-22802380D01*
X65976190Y-21754761D02*
X65738095Y-22469047D01*
X66357142Y-22469047D01*
X67166666Y-21802380D02*
X66976190Y-21802380D01*
X66880952Y-21850000D01*
X66833333Y-21897619D01*
X66738095Y-22040476D01*
X66690476Y-22230952D01*
X66690476Y-22611904D01*
X66738095Y-22707142D01*
X66785714Y-22754761D01*
X66880952Y-22802380D01*
X67071428Y-22802380D01*
X67166666Y-22754761D01*
X67214285Y-22707142D01*
X67261904Y-22611904D01*
X67261904Y-22373809D01*
X67214285Y-22278571D01*
X67166666Y-22230952D01*
X67071428Y-22183333D01*
X66880952Y-22183333D01*
X66785714Y-22230952D01*
X66738095Y-22278571D01*
X66690476Y-22373809D01*
X63952380Y-38892857D02*
X63476190Y-39226190D01*
X63952380Y-39464285D02*
X62952380Y-39464285D01*
X62952380Y-39083333D01*
X63000000Y-38988095D01*
X63047619Y-38940476D01*
X63142857Y-38892857D01*
X63285714Y-38892857D01*
X63380952Y-38940476D01*
X63428571Y-38988095D01*
X63476190Y-39083333D01*
X63476190Y-39464285D01*
X63285714Y-38035714D02*
X63952380Y-38035714D01*
X62904761Y-38273809D02*
X63619047Y-38511904D01*
X63619047Y-37892857D01*
X62952380Y-37607142D02*
X62952380Y-36940476D01*
X63952380Y-37369047D01*
X45797142Y-22802380D02*
X45463809Y-22326190D01*
X45225714Y-22802380D02*
X45225714Y-21802380D01*
X45606666Y-21802380D01*
X45701904Y-21850000D01*
X45749523Y-21897619D01*
X45797142Y-21992857D01*
X45797142Y-22135714D01*
X45749523Y-22230952D01*
X45701904Y-22278571D01*
X45606666Y-22326190D01*
X45225714Y-22326190D01*
X46654285Y-22135714D02*
X46654285Y-22802380D01*
X46416190Y-21754761D02*
X46178095Y-22469047D01*
X46797142Y-22469047D01*
X47320952Y-22230952D02*
X47225714Y-22183333D01*
X47178095Y-22135714D01*
X47130476Y-22040476D01*
X47130476Y-21992857D01*
X47178095Y-21897619D01*
X47225714Y-21850000D01*
X47320952Y-21802380D01*
X47511428Y-21802380D01*
X47606666Y-21850000D01*
X47654285Y-21897619D01*
X47701904Y-21992857D01*
X47701904Y-22040476D01*
X47654285Y-22135714D01*
X47606666Y-22183333D01*
X47511428Y-22230952D01*
X47320952Y-22230952D01*
X47225714Y-22278571D01*
X47178095Y-22326190D01*
X47130476Y-22421428D01*
X47130476Y-22611904D01*
X47178095Y-22707142D01*
X47225714Y-22754761D01*
X47320952Y-22802380D01*
X47511428Y-22802380D01*
X47606666Y-22754761D01*
X47654285Y-22707142D01*
X47701904Y-22611904D01*
X47701904Y-22421428D01*
X47654285Y-22326190D01*
X47606666Y-22278571D01*
X47511428Y-22230952D01*
X79157142Y-41402380D02*
X78823809Y-40926190D01*
X78585714Y-41402380D02*
X78585714Y-40402380D01*
X78966666Y-40402380D01*
X79061904Y-40450000D01*
X79109523Y-40497619D01*
X79157142Y-40592857D01*
X79157142Y-40735714D01*
X79109523Y-40830952D01*
X79061904Y-40878571D01*
X78966666Y-40926190D01*
X78585714Y-40926190D01*
X80014285Y-40735714D02*
X80014285Y-41402380D01*
X79776190Y-40354761D02*
X79538095Y-41069047D01*
X80157142Y-41069047D01*
X80585714Y-41402380D02*
X80776190Y-41402380D01*
X80871428Y-41354761D01*
X80919047Y-41307142D01*
X81014285Y-41164285D01*
X81061904Y-40973809D01*
X81061904Y-40592857D01*
X81014285Y-40497619D01*
X80966666Y-40450000D01*
X80871428Y-40402380D01*
X80680952Y-40402380D01*
X80585714Y-40450000D01*
X80538095Y-40497619D01*
X80490476Y-40592857D01*
X80490476Y-40830952D01*
X80538095Y-40926190D01*
X80585714Y-40973809D01*
X80680952Y-41021428D01*
X80871428Y-41021428D01*
X80966666Y-40973809D01*
X81014285Y-40926190D01*
X81061904Y-40830952D01*
X93057142Y-34102380D02*
X92723809Y-33626190D01*
X92485714Y-34102380D02*
X92485714Y-33102380D01*
X92866666Y-33102380D01*
X92961904Y-33150000D01*
X93009523Y-33197619D01*
X93057142Y-33292857D01*
X93057142Y-33435714D01*
X93009523Y-33530952D01*
X92961904Y-33578571D01*
X92866666Y-33626190D01*
X92485714Y-33626190D01*
X93961904Y-33102380D02*
X93485714Y-33102380D01*
X93438095Y-33578571D01*
X93485714Y-33530952D01*
X93580952Y-33483333D01*
X93819047Y-33483333D01*
X93914285Y-33530952D01*
X93961904Y-33578571D01*
X94009523Y-33673809D01*
X94009523Y-33911904D01*
X93961904Y-34007142D01*
X93914285Y-34054761D01*
X93819047Y-34102380D01*
X93580952Y-34102380D01*
X93485714Y-34054761D01*
X93438095Y-34007142D01*
X94628571Y-33102380D02*
X94723809Y-33102380D01*
X94819047Y-33150000D01*
X94866666Y-33197619D01*
X94914285Y-33292857D01*
X94961904Y-33483333D01*
X94961904Y-33721428D01*
X94914285Y-33911904D01*
X94866666Y-34007142D01*
X94819047Y-34054761D01*
X94723809Y-34102380D01*
X94628571Y-34102380D01*
X94533333Y-34054761D01*
X94485714Y-34007142D01*
X94438095Y-33911904D01*
X94390476Y-33721428D01*
X94390476Y-33483333D01*
X94438095Y-33292857D01*
X94485714Y-33197619D01*
X94533333Y-33150000D01*
X94628571Y-33102380D01*
X113292380Y-35352857D02*
X112816190Y-35686190D01*
X113292380Y-35924285D02*
X112292380Y-35924285D01*
X112292380Y-35543333D01*
X112340000Y-35448095D01*
X112387619Y-35400476D01*
X112482857Y-35352857D01*
X112625714Y-35352857D01*
X112720952Y-35400476D01*
X112768571Y-35448095D01*
X112816190Y-35543333D01*
X112816190Y-35924285D01*
X112292380Y-34448095D02*
X112292380Y-34924285D01*
X112768571Y-34971904D01*
X112720952Y-34924285D01*
X112673333Y-34829047D01*
X112673333Y-34590952D01*
X112720952Y-34495714D01*
X112768571Y-34448095D01*
X112863809Y-34400476D01*
X113101904Y-34400476D01*
X113197142Y-34448095D01*
X113244761Y-34495714D01*
X113292380Y-34590952D01*
X113292380Y-34829047D01*
X113244761Y-34924285D01*
X113197142Y-34971904D01*
X113292380Y-33448095D02*
X113292380Y-34019523D01*
X113292380Y-33733809D02*
X112292380Y-33733809D01*
X112435238Y-33829047D01*
X112530476Y-33924285D01*
X112578095Y-34019523D01*
X115712380Y-35352857D02*
X115236190Y-35686190D01*
X115712380Y-35924285D02*
X114712380Y-35924285D01*
X114712380Y-35543333D01*
X114760000Y-35448095D01*
X114807619Y-35400476D01*
X114902857Y-35352857D01*
X115045714Y-35352857D01*
X115140952Y-35400476D01*
X115188571Y-35448095D01*
X115236190Y-35543333D01*
X115236190Y-35924285D01*
X114712380Y-34448095D02*
X114712380Y-34924285D01*
X115188571Y-34971904D01*
X115140952Y-34924285D01*
X115093333Y-34829047D01*
X115093333Y-34590952D01*
X115140952Y-34495714D01*
X115188571Y-34448095D01*
X115283809Y-34400476D01*
X115521904Y-34400476D01*
X115617142Y-34448095D01*
X115664761Y-34495714D01*
X115712380Y-34590952D01*
X115712380Y-34829047D01*
X115664761Y-34924285D01*
X115617142Y-34971904D01*
X114807619Y-34019523D02*
X114760000Y-33971904D01*
X114712380Y-33876666D01*
X114712380Y-33638571D01*
X114760000Y-33543333D01*
X114807619Y-33495714D01*
X114902857Y-33448095D01*
X114998095Y-33448095D01*
X115140952Y-33495714D01*
X115712380Y-34067142D01*
X115712380Y-33448095D01*
X110882380Y-35372857D02*
X110406190Y-35706190D01*
X110882380Y-35944285D02*
X109882380Y-35944285D01*
X109882380Y-35563333D01*
X109930000Y-35468095D01*
X109977619Y-35420476D01*
X110072857Y-35372857D01*
X110215714Y-35372857D01*
X110310952Y-35420476D01*
X110358571Y-35468095D01*
X110406190Y-35563333D01*
X110406190Y-35944285D01*
X109882380Y-34468095D02*
X109882380Y-34944285D01*
X110358571Y-34991904D01*
X110310952Y-34944285D01*
X110263333Y-34849047D01*
X110263333Y-34610952D01*
X110310952Y-34515714D01*
X110358571Y-34468095D01*
X110453809Y-34420476D01*
X110691904Y-34420476D01*
X110787142Y-34468095D01*
X110834761Y-34515714D01*
X110882380Y-34610952D01*
X110882380Y-34849047D01*
X110834761Y-34944285D01*
X110787142Y-34991904D01*
X109882380Y-34087142D02*
X109882380Y-33468095D01*
X110263333Y-33801428D01*
X110263333Y-33658571D01*
X110310952Y-33563333D01*
X110358571Y-33515714D01*
X110453809Y-33468095D01*
X110691904Y-33468095D01*
X110787142Y-33515714D01*
X110834761Y-33563333D01*
X110882380Y-33658571D01*
X110882380Y-33944285D01*
X110834761Y-34039523D01*
X110787142Y-34087142D01*
X74357380Y-28786904D02*
X75166904Y-28786904D01*
X75262142Y-28739285D01*
X75309761Y-28691666D01*
X75357380Y-28596428D01*
X75357380Y-28405952D01*
X75309761Y-28310714D01*
X75262142Y-28263095D01*
X75166904Y-28215476D01*
X74357380Y-28215476D01*
X74452619Y-27786904D02*
X74405000Y-27739285D01*
X74357380Y-27644047D01*
X74357380Y-27405952D01*
X74405000Y-27310714D01*
X74452619Y-27263095D01*
X74547857Y-27215476D01*
X74643095Y-27215476D01*
X74785952Y-27263095D01*
X75357380Y-27834523D01*
X75357380Y-27215476D01*
X87188095Y-38502380D02*
X87188095Y-39311904D01*
X87235714Y-39407142D01*
X87283333Y-39454761D01*
X87378571Y-39502380D01*
X87569047Y-39502380D01*
X87664285Y-39454761D01*
X87711904Y-39407142D01*
X87759523Y-39311904D01*
X87759523Y-38502380D01*
X88140476Y-38502380D02*
X88759523Y-38502380D01*
X88426190Y-38883333D01*
X88569047Y-38883333D01*
X88664285Y-38930952D01*
X88711904Y-38978571D01*
X88759523Y-39073809D01*
X88759523Y-39311904D01*
X88711904Y-39407142D01*
X88664285Y-39454761D01*
X88569047Y-39502380D01*
X88283333Y-39502380D01*
X88188095Y-39454761D01*
X88140476Y-39407142D01*
X108838095Y-29792380D02*
X108838095Y-30601904D01*
X108885714Y-30697142D01*
X108933333Y-30744761D01*
X109028571Y-30792380D01*
X109219047Y-30792380D01*
X109314285Y-30744761D01*
X109361904Y-30697142D01*
X109409523Y-30601904D01*
X109409523Y-29792380D01*
X110314285Y-30125714D02*
X110314285Y-30792380D01*
X110076190Y-29744761D02*
X109838095Y-30459047D01*
X110457142Y-30459047D01*
X32933333Y-29152380D02*
X32600000Y-28676190D01*
X32361904Y-29152380D02*
X32361904Y-28152380D01*
X32742857Y-28152380D01*
X32838095Y-28200000D01*
X32885714Y-28247619D01*
X32933333Y-28342857D01*
X32933333Y-28485714D01*
X32885714Y-28580952D01*
X32838095Y-28628571D01*
X32742857Y-28676190D01*
X32361904Y-28676190D01*
X33314285Y-28247619D02*
X33361904Y-28200000D01*
X33457142Y-28152380D01*
X33695238Y-28152380D01*
X33790476Y-28200000D01*
X33838095Y-28247619D01*
X33885714Y-28342857D01*
X33885714Y-28438095D01*
X33838095Y-28580952D01*
X33266666Y-29152380D01*
X33885714Y-29152380D01*
X32933333Y-34152380D02*
X32600000Y-33676190D01*
X32361904Y-34152380D02*
X32361904Y-33152380D01*
X32742857Y-33152380D01*
X32838095Y-33200000D01*
X32885714Y-33247619D01*
X32933333Y-33342857D01*
X32933333Y-33485714D01*
X32885714Y-33580952D01*
X32838095Y-33628571D01*
X32742857Y-33676190D01*
X32361904Y-33676190D01*
X33266666Y-33152380D02*
X33885714Y-33152380D01*
X33552380Y-33533333D01*
X33695238Y-33533333D01*
X33790476Y-33580952D01*
X33838095Y-33628571D01*
X33885714Y-33723809D01*
X33885714Y-33961904D01*
X33838095Y-34057142D01*
X33790476Y-34104761D01*
X33695238Y-34152380D01*
X33409523Y-34152380D01*
X33314285Y-34104761D01*
X33266666Y-34057142D01*
X32758333Y-39352380D02*
X32425000Y-38876190D01*
X32186904Y-39352380D02*
X32186904Y-38352380D01*
X32567857Y-38352380D01*
X32663095Y-38400000D01*
X32710714Y-38447619D01*
X32758333Y-38542857D01*
X32758333Y-38685714D01*
X32710714Y-38780952D01*
X32663095Y-38828571D01*
X32567857Y-38876190D01*
X32186904Y-38876190D01*
X33615476Y-38685714D02*
X33615476Y-39352380D01*
X33377380Y-38304761D02*
X33139285Y-39019047D01*
X33758333Y-39019047D01*
X32733333Y-44952380D02*
X32400000Y-44476190D01*
X32161904Y-44952380D02*
X32161904Y-43952380D01*
X32542857Y-43952380D01*
X32638095Y-44000000D01*
X32685714Y-44047619D01*
X32733333Y-44142857D01*
X32733333Y-44285714D01*
X32685714Y-44380952D01*
X32638095Y-44428571D01*
X32542857Y-44476190D01*
X32161904Y-44476190D01*
X33638095Y-43952380D02*
X33161904Y-43952380D01*
X33114285Y-44428571D01*
X33161904Y-44380952D01*
X33257142Y-44333333D01*
X33495238Y-44333333D01*
X33590476Y-44380952D01*
X33638095Y-44428571D01*
X33685714Y-44523809D01*
X33685714Y-44761904D01*
X33638095Y-44857142D01*
X33590476Y-44904761D01*
X33495238Y-44952380D01*
X33257142Y-44952380D01*
X33161904Y-44904761D01*
X33114285Y-44857142D01*
X32983333Y-50452380D02*
X32650000Y-49976190D01*
X32411904Y-50452380D02*
X32411904Y-49452380D01*
X32792857Y-49452380D01*
X32888095Y-49500000D01*
X32935714Y-49547619D01*
X32983333Y-49642857D01*
X32983333Y-49785714D01*
X32935714Y-49880952D01*
X32888095Y-49928571D01*
X32792857Y-49976190D01*
X32411904Y-49976190D01*
X33840476Y-49452380D02*
X33650000Y-49452380D01*
X33554761Y-49500000D01*
X33507142Y-49547619D01*
X33411904Y-49690476D01*
X33364285Y-49880952D01*
X33364285Y-50261904D01*
X33411904Y-50357142D01*
X33459523Y-50404761D01*
X33554761Y-50452380D01*
X33745238Y-50452380D01*
X33840476Y-50404761D01*
X33888095Y-50357142D01*
X33935714Y-50261904D01*
X33935714Y-50023809D01*
X33888095Y-49928571D01*
X33840476Y-49880952D01*
X33745238Y-49833333D01*
X33554761Y-49833333D01*
X33459523Y-49880952D01*
X33411904Y-49928571D01*
X33364285Y-50023809D01*
M02*
