M48
; DRILL file {KiCad 5.1.5-52549c5~84~ubuntu18.04.1} date Mi 22 ian 2020 13:17:12 +0200
; FORMAT={-:-/ absolute / inch / decimal}
; #@! TF.CreationDate,2020-01-22T13:17:12+02:00
; #@! TF.GenerationSoftware,Kicad,Pcbnew,5.1.5-52549c5~84~ubuntu18.04.1
; #@! TF.FileFunction,Plated,1,2,PTH
FMAT,2
INCH
T1C0.0157
T2C0.0295
T3C0.0394
T4C0.1181
%
G90
G05
T1
X1.3248Y-2.2421
X1.9921Y-1.2756
X1.9921Y-1.315
X1.9921Y-1.3543
X1.9921Y-1.3937
X2.001Y-1.22
X2.1201Y-1.935
X2.1309Y-1.252
X2.1358Y-1.1929
X2.1894Y-1.3291
X2.2323Y-1.5886
X2.2343Y-1.3091
X2.2358Y-1.2717
X2.2559Y-1.1929
X2.2559Y-1.3465
X2.2598Y-1.0984
X2.2598Y-1.3858
X2.2638Y-1.2283
X2.3307Y-1.9331
X2.3543Y-1.252
X2.3575Y-1.4339
X2.3579Y-1.3508
X2.4272Y-1.4154
X2.4606Y-1.0748
X2.5276Y-1.252
X2.5472Y-1.9774
X2.625Y-1.2904
X2.7776Y-2.1732
X2.8071Y-1.2205
X2.9016Y-1.2205
X2.9921Y-1.0673
X3.0453Y-1.4429
X3.0787Y-1.4154
X3.1201Y-1.3406
X3.1535Y-1.3661
X3.2756Y-1.2835
X3.4114Y-1.3406
X3.5256Y-1.4823
X3.752Y-1.2854
X3.8051Y-1.2874
X3.8563Y-1.3524
X3.8583Y-2.1732
X3.9469Y-1.2618
X3.9961Y-2.0787
X4.1567Y-2.3224
X4.4213Y-1.0787
X4.4232Y-0.9783
T2
X1.063Y-0.9016
X1.063Y-0.9803
X1.063Y-2.1673
X1.063Y-2.2461
X1.063Y-1.1811
X1.063Y-1.2598
X1.063Y-1.3386
X1.063Y-1.4173
X1.063Y-1.4961
X1.063Y-1.5748
X1.063Y-1.6535
X1.063Y-1.7323
X1.063Y-1.811
X1.063Y-1.8898
X1.063Y-1.9685
T3
X4.6102Y-0.9008
X4.6102Y-1.0008
X4.6102Y-1.1008
X4.6102Y-1.2008
X3.2969Y-1.6732
X3.3969Y-1.6732
X3.4969Y-1.6732
X3.5969Y-1.6732
X3.6969Y-1.6732
X4.1594Y-0.928
X4.1594Y-1.028
X4.1594Y-1.128
T4
X4.2283Y-1.9764
X2.0866Y-2.1732
T0
M30
